<svg width="48" height="48" viewBox="0 0 48 48" fill="none" xmlns="http://www.w3.org/2000/svg">
<g clip-path="url(#clip0)">
<path d="M39 47.8413H9C4.02905 47.8413 0 43.8256 0 38.871V8.97005C0 4.01551 4.02905 -0.000244141 9 -0.000244141H39C43.9709 -0.000244141 48 4.01551 48 8.97005V38.871C48 43.8256 43.9709 47.8413 39 47.8413Z" fill="#D6FFE7"/>
<path d="M15.999 15.9474C15.999 17.0479 15.1036 17.9403 13.9995 17.9403C12.8954 17.9403 12 17.0479 12 15.9474C12 14.8469 12.8954 13.9545 13.9995 13.9545C15.1036 13.9545 15.999 14.8469 15.999 15.9474Z" fill="#82E8AD"/>
<path d="M15.999 23.9205C15.999 25.021 15.1036 25.9134 13.9995 25.9134C12.8954 25.9134 12 25.021 12 23.9205C12 22.82 12.8954 21.9276 13.9995 21.9276C15.1036 21.9276 15.999 22.82 15.999 23.9205Z" fill="#82E8AD"/>
<path d="M15.999 31.8935C15.999 32.994 15.1036 33.8865 13.9995 33.8865C12.8954 33.8865 12 32.994 12 31.8935C12 30.7931 12.8954 29.9006 13.9995 29.9006C15.1036 29.9006 15.999 30.7931 15.999 31.8935Z" fill="#82E8AD"/>
<path d="M34.9995 16.9431H19.9995C19.4476 16.9431 18.999 16.4974 18.999 15.9459C18.999 15.3944 19.4462 14.9502 19.9995 14.9502H34.9995C35.5514 14.9502 36 15.3959 36 15.9474C36 16.4989 35.5514 16.9431 34.9995 16.9431Z" fill="#31C26E"/>
<path d="M34.9995 24.9177H19.9995C19.4476 24.9177 18.999 24.472 18.999 23.9205C18.999 23.3705 19.4462 22.9233 19.9995 22.9233H34.9995C35.5514 22.9233 36 23.369 36 23.9205C36 24.4706 35.5514 24.9177 34.9995 24.9177Z" fill="#31C26E"/>
<path d="M34.9995 32.8909H19.9995C19.4476 32.8909 18.999 32.4452 18.999 31.8937C18.999 31.3436 19.4462 30.8965 19.9995 30.8965H34.9995C35.5514 30.8965 36 31.3422 36 31.8937C36 32.4452 35.5514 32.8909 34.9995 32.8909Z" fill="#31C26E"/>
</g>
<defs>
<clipPath id="clip0">
<rect y="-0.000244141" width="48" height="47.8416" fill="white"/>
</clipPath>
</defs>
</svg>
