<svg width="48" height="48" viewBox="0 0 48 48" fill="none" xmlns="http://www.w3.org/2000/svg">
<g clip-path="url(#clip0)">
<g clip-path="url(#clip1)">
<path d="M39 47.9998H9C4.02905 47.9998 0 43.9707 0 38.9998V8.99976C0 4.02881 4.02905 -0.000244141 9 -0.000244141H39C43.9709 -0.000244141 48 4.02881 48 8.99976V38.9998C48 43.9707 43.9709 47.9998 39 47.9998Z" fill="#FFE6E2"/>
</g>
<path d="M28 23.1332V15.6665C28 13.4532 26.2133 11.6665 24 11.6665C21.9466 11.6665 20.28 13.2132 20.0533 15.1998L28 23.1332ZM32.1066 23.6665C31.56 23.6665 31.08 24.0665 31 24.6132C30.9333 25.0398 30.84 25.4665 30.7066 25.8532L32.4 27.5465C32.8 26.7465 33.0933 25.8798 33.24 24.9598C33.3333 24.2798 32.8 23.6665 32.1066 23.6665ZM12.9466 13.7465C12.4266 14.2665 12.4266 15.1065 12.9466 15.6265L20 22.6932V23.2665C20 24.8532 20.8 26.3598 22.1733 27.1465C23.1733 27.7198 24.0533 27.7332 24.8666 27.5598L27.08 29.7732C26.1333 30.2132 25.08 30.4665 24 30.4665C20.6133 30.4665 17.4933 28.1065 17 24.6132C16.92 24.0665 16.44 23.6665 15.8933 23.6665C15.2 23.6665 14.6666 24.2798 14.76 24.9598C15.3733 28.9065 18.7066 32.0265 22.6666 32.6265V35.6665C22.6666 36.3998 23.2666 36.9998 24 36.9998C24.7333 36.9998 25.3333 36.3998 25.3333 35.6665V32.6265C26.5466 32.4532 27.6933 32.0265 28.7333 31.4265L33.3866 36.0798C33.9066 36.5998 34.7466 36.5998 35.2666 36.0798C35.7866 35.5598 35.7866 34.7198 35.2666 34.1998L14.8266 13.7465C14.3066 13.2265 13.4666 13.2265 12.9466 13.7465Z" fill="#FF5722"/>
</g>
<defs>
<clipPath id="clip0">
<rect y="-0.000244141" width="48" height="48" fill="white"/>
</clipPath>
<clipPath id="clip1">
<rect y="-0.000244141" width="48" height="48" fill="white"/>
</clipPath>
</defs>
</svg>
