<svg width="48" height="48" viewBox="0 0 48 48" fill="none" xmlns="http://www.w3.org/2000/svg">
<g clip-path="url(#clip0)">
<path d="M39 47.9998H9C4.02905 47.9998 0 43.9707 0 38.9998V8.99976C0 4.02881 4.02905 -0.000244141 9 -0.000244141H39C43.9709 -0.000244141 48 4.02881 48 8.99976V38.9998C48 43.9707 43.9709 47.9998 39 47.9998Z" fill="#FFF9DD"/>
<path d="M24.3333 10.9998C16.9733 10.9998 11 17.0251 11 24.4491C11 31.8732 16.9733 37.8985 24.3333 37.8985C31.6933 37.8985 37.6667 31.8732 37.6667 24.4491C37.6667 17.0251 31.6933 10.9998 24.3333 10.9998ZM24.3333 35.2086C18.44 35.2086 13.6667 30.3937 13.6667 24.4491C13.6667 21.961 14.5067 19.6746 15.92 17.8589L30.8667 32.9357C29.0667 34.3613 26.8 35.2086 24.3333 35.2086ZM32.7467 31.0393L17.8 15.9626C19.6 14.5369 21.8667 13.6896 24.3333 13.6896C30.2267 13.6896 35 18.5045 35 24.4491C35 26.9373 34.16 29.2237 32.7467 31.0393Z" fill="#F8C142"/>
</g>
<defs>
<clipPath id="clip0">
<rect y="-0.000244141" width="48" height="48" fill="white"/>
</clipPath>
</defs>
</svg>
