<svg width="100" height="100" viewBox="0 0 100 100" fill="none" xmlns="http://www.w3.org/2000/svg">
<path d="M50 98C76.5097 98 98 76.5097 98 50C98 23.4903 76.5097 2 50 2C23.4903 2 2 23.4903 2 50C2 76.5097 23.4903 98 50 98Z" fill="#FFE9B0"/>
<path d="M70 21.5L54.4594 54.6748L48.8151 49.0301L19 77.5L38 96.5C58.5 101.5 73.3916 92.9048 80.4504 87.1054L81.0844 86.4715L81.1393 86.5264C90.249 78.7526 96.6817 68.0653 98 55.5L70 21.5Z" fill="#ECCC7B"/>
<path d="M63.037 57.6872V62.4611C63.037 63.4342 62.2489 64.2223 61.2759 64.2223H38.7241C37.7511 64.2223 36.963 63.4342 36.963 62.4611V57.6872C36.963 56.7142 36.1748 55.926 35.2018 55.926H18.275C18.1233 55.926 18 56.0493 18 56.201V75.3334C18 77.0508 19.3938 78.4445 21.1123 78.4445H78.8889C80.6062 78.4445 82 77.0508 82 75.3322V56.201C82 56.0493 81.8767 55.926 81.725 55.926H64.7982C63.8252 55.926 63.037 56.7142 63.037 57.6872Z" fill="#1081E0"/>
<path d="M70.1481 21.5557H29.8519L18 55.926V56.1998C18 56.0493 18.1233 55.926 18.275 55.926H35.2018C36.1748 55.926 36.963 56.7142 36.963 57.6872V62.4611C36.963 63.4342 37.7511 64.2223 38.7241 64.2223H61.2759C62.2489 64.2223 63.037 63.4342 63.037 62.4611V57.6872C63.037 56.7142 63.8252 55.926 64.7982 55.926H81.725C81.8767 55.926 82 56.0493 82 56.1998V55.9225L70.1481 21.5557Z" fill="#13649B"/>
<path d="M35.2018 55.9261C36.1748 55.9261 36.963 56.7142 36.963 57.6872V62.4612C36.963 63.4342 37.7511 64.2224 38.7241 64.2224H61.2759C62.2489 64.2224 63.037 63.4342 63.037 62.4612V57.6872C63.037 56.7142 63.8252 55.9261 64.7982 55.9261H72.5185V52.3705V46.4446H27.4815V52.3705V55.9261H35.2018Z" fill="#F2ECBF"/>
<path d="M68.963 36.9631H31.037V46.4446H68.963V36.9631Z" fill="#CCC497"/>
<path d="M65.4074 27.4817H34.5926V36.9632H65.4074V27.4817Z" fill="#AAA282"/>
<circle cx="82" cy="84" r="16" fill="#FF5722"/>
<path d="M82 75L84.645 80.3594L90.5595 81.2188L86.2798 85.3906L87.2901 91.2812L82 88.5L76.7099 91.2812L77.7202 85.3906L73.4405 81.2188L79.355 80.3594L82 75Z" fill="white"/>
</svg>
