<svg width="48" height="48" viewBox="0 0 48 48" fill="none" xmlns="http://www.w3.org/2000/svg">
<g clip-path="url(#clip0)">
<path d="M39 47.9998H9C4.02905 47.9998 0 43.9707 0 38.9998V8.99976C0 4.02881 4.02905 -0.000244141 9 -0.000244141H39C43.9709 -0.000244141 48 4.02881 48 8.99976V38.9998C48 43.9707 43.9709 47.9998 39 47.9998Z" fill="#E3F8FA"/>
<path d="M32.4714 15.5285C30.0239 13.0839 26.5554 11.6742 22.7415 12.0641C17.2308 12.619 12.6962 17.0882 12.0806 22.5922C11.2547 29.8659 16.8855 35.9998 23.9877 35.9998C28.7776 35.9998 32.8918 33.1953 34.8138 29.161C35.2943 28.1562 34.5735 27.0014 33.4624 27.0014C32.9068 27.0014 32.3813 27.3013 32.1411 27.7963C30.4443 31.4406 26.3752 33.7502 21.9306 32.7603C18.5972 32.0255 15.9095 29.311 15.2038 25.9816C13.9425 20.1626 18.372 15.0036 23.9877 15.0036C26.4803 15.0036 28.7025 16.0384 30.3242 17.6731L28.0569 19.9377C27.1109 20.8825 27.7716 22.5022 29.108 22.5022H34.4985C35.3243 22.5022 36 21.8273 36 21.0025V15.6185C36 14.2837 34.3783 13.6088 33.4324 14.5537L32.4714 15.5285Z" fill="#26C6DA"/>
</g>
<defs>
<clipPath id="clip0">
<rect y="-0.000244141" width="48" height="48" fill="white"/>
</clipPath>
</defs>
</svg>
