<svg width="48" height="48" viewBox="0 0 48 48" fill="none" xmlns="http://www.w3.org/2000/svg">
<g clip-path="url(#clip0)">
<path d="M39 47.9998H9C4.02905 47.9998 0 43.9707 0 38.9998V8.99976C0 4.02881 4.02905 -0.000244141 9 -0.000244141H39C43.9709 -0.000244141 48 4.02881 48 8.99976V38.9998C48 43.9707 43.9709 47.9998 39 47.9998Z" fill="#EDEDED"/>
<path d="M12 20.2498C12 20.6636 12.3362 20.9998 12.75 20.9998H19.2495C19.5524 20.9998 19.827 20.8167 19.9424 20.5361C20.0581 20.2556 19.9951 19.9333 19.7791 19.7188L16.968 16.9077C18.8101 15.0778 21.3062 13.9993 23.9985 13.9993C29.5126 13.9993 33.999 18.4857 33.999 23.9998C33.999 24.5516 34.4462 25.0002 34.9995 25.0002C35.5529 25.0002 36 24.5516 36 23.9998C36 17.3834 30.6163 11.9998 24 11.9998C20.7645 11.9998 17.7554 13.2837 15.5446 15.4843L13.2795 13.2192C13.0649 13.0046 12.7427 12.9402 12.4636 13.0574C12.1831 13.1727 12 13.4459 12 13.7502V20.2498Z" fill="#A5A5A5"/>
<path d="M36 27.7498C36 27.3359 35.6638 26.9998 35.25 26.9998H28.7505C28.4476 26.9998 28.173 27.1829 28.0576 27.4634C27.9419 27.7439 28.0049 28.0662 28.2209 28.2808L31.032 31.0918C29.1899 32.9218 26.6938 34.0002 24.0015 34.0002C18.4874 34.0002 14.001 29.5138 14.001 23.9998C14.001 23.4479 13.5538 22.9993 13.0005 22.9993C12.4471 22.9993 12 23.4479 12 23.9998C12 30.6161 17.3837 35.9998 24 35.9998C27.234 35.9998 30.2446 34.7158 32.454 32.5153L34.719 34.7803C34.8629 34.9242 35.0533 34.9993 35.25 34.9993C35.3459 34.9993 35.4448 34.9813 35.5364 34.9421C35.8169 34.8268 36 34.5536 36 34.2493V27.7498Z" fill="#767676"/>
</g>
<defs>
<clipPath id="clip0">
<rect y="-0.000244141" width="48" height="48" fill="white"/>
</clipPath>
</defs>
</svg>
