<svg width="48" height="48" viewBox="0 0 48 48" fill="none" xmlns="http://www.w3.org/2000/svg">
<g clip-path="url(#clip0)">
<path d="M39 47.9998H9C4.02905 47.9998 0 43.9707 0 38.9998V8.99976C0 4.02881 4.02905 -0.000244141 9 -0.000244141H39C43.9709 -0.000244141 48 4.02881 48 8.99976V38.9998C48 43.9707 43.9709 47.9998 39 47.9998Z" fill="#F5E6FE"/>
<path d="M17.0039 12.9973V16.9978H15.0044V12.9973C15.0044 12.4469 15.4438 11.9968 16.0049 11.9968C16.5538 11.9968 17.0039 12.4469 17.0039 12.9973Z" fill="#D6AEF0"/>
<path d="M17.0039 21.9973V34.9978C17.0039 35.5482 16.5538 35.9983 16.0034 35.9983C15.4438 35.9983 15.0029 35.5482 15.0029 34.9978V21.9973H17.0039Z" fill="#D6AEF0"/>
<path d="M34.251 16.9993H33.0015V12.9988C33.0015 12.4469 32.5529 11.9998 32.001 11.9998C31.4491 11.9998 31.0005 12.4484 31.0005 13.0002V17.0007H29.751C28.7864 17.0007 28.0005 17.7852 28.0005 18.7512V20.2512C28.0005 21.2158 28.7849 22.0017 29.751 22.0017H31.0005V35.0022C31.0005 35.5541 31.4476 36.0027 32.001 36.0027C32.5529 36.0027 33.0015 35.5541 33.0015 35.0022V22.0017H34.251C35.2156 22.0017 36.0015 21.2173 36.0015 20.2512V18.7512C36.0015 17.7837 35.2156 16.9993 34.251 16.9993Z" fill="#D6AEF0"/>
<path d="M26.2515 26.9998H25.002V12.9988C25.0005 12.4469 24.5533 11.9998 24.0015 11.9998C23.4496 11.9998 23.001 12.4484 23.001 13.0002V26.9998H21.7515C20.7869 26.9998 20.001 27.7842 20.001 28.7502V30.2502C20.001 31.2148 20.7854 32.0007 21.7515 32.0007H23.001V35.0007C23.001 35.5526 23.4481 36.0012 24.0015 36.0012C24.5533 36.0012 25.002 35.5526 25.002 35.0007V32.0007H26.2515C27.2161 32.0007 28.002 31.2163 28.002 30.2502V28.7502C28.0005 27.7842 27.2161 26.9998 26.2515 26.9998Z" fill="#D6AEF0"/>
<path d="M20.0039 18.7468V20.2468C20.0039 21.2173 19.2136 21.9973 18.2534 21.9973H13.7534C12.783 21.9973 12.0029 21.2173 12.0029 20.2468V18.7468C12.0029 17.7866 12.783 16.9963 13.7534 16.9963H18.2534C19.2136 16.9963 20.0039 17.7866 20.0039 18.7468Z" fill="#A543D2"/>
<path d="M28.0005 28.7473V30.2473C28.0005 31.2178 27.2098 31.9978 26.25 31.9978H21.75C20.7795 31.9978 19.9995 31.2178 19.9995 30.2473V28.7473C19.9995 27.7871 20.7795 26.9968 21.75 26.9968H26.25C27.2117 26.9968 28.0005 27.7871 28.0005 28.7473Z" fill="#A543D2"/>
<path d="M36.0015 18.7468V20.2468C36.0015 21.2173 35.2112 21.9973 34.251 21.9973H29.751C28.7805 21.9973 28.0005 21.2173 28.0005 20.2468V18.7468C28.0005 17.7866 28.7805 16.9963 29.751 16.9963H34.251C35.2112 16.9963 36.0015 17.7866 36.0015 18.7468Z" fill="#A543D2"/>
</g>
<defs>
<clipPath id="clip0">
<rect y="-0.000244141" width="48" height="48" fill="white"/>
</clipPath>
</defs>
</svg>
