<svg width="100" height="100" viewBox="0 0 100 100" fill="none" xmlns="http://www.w3.org/2000/svg">
<path d="M97 42C93 20 73.0235 2 50 2C23.4903 2 2 23.4903 2 50C2 72.6842 19.5 97 48.5 98L97 42Z" fill="#FFC7B6"/>
<path d="M97.9999 50.0001C97.9999 46.5141 97.7057 45.2751 97 42L78 26L72 25L60 25L40.5 25L27.5 82.5L46.5 97.5C46.5 97.5 47.5 98 49.9999 98.0001C76.5096 98.0001 97.9999 76.5096 97.9999 50.0001Z" fill="#CE8D77"/>
<path d="M25.5625 32V78.7499C25.5625 81.0959 27.4666 83 29.8126 83H70.1874C72.5334 83 74.4375 81.0959 74.4375 78.7499V32H25.5625Z" fill="#B0BEC5"/>
<path d="M40.4375 15H59.5625C61.9085 15 63.8126 16.9041 63.8126 19.2501V23.5001H59.5625V21.3751C59.5625 20.2022 58.6126 19.2501 57.4375 19.2501H42.5625C41.3875 19.2501 40.4375 20.202 40.4375 21.3751V23.5001H36.1874V19.2501C36.1874 16.9041 38.0915 15 40.4375 15Z" fill="white"/>
<path d="M34.0624 73.4372C34.0624 75.1987 35.4905 76.6246 37.2498 76.6246C39.0094 76.6246 40.4373 75.1987 40.4373 73.4372V42.5591H34.0624V73.4372ZM59.5625 42.5591V73.4374C59.5625 75.197 60.9906 76.6249 62.75 76.6249C64.5095 76.6249 65.9374 75.1968 65.9374 73.4374V42.5591H59.5625ZM46.8123 73.4372C46.8123 75.1968 48.2404 76.6246 49.9998 76.6246C51.7593 76.6246 53.1872 75.1965 53.1872 73.4372V42.5591H46.8121L46.8123 73.4372Z" fill="#CFD8DC"/>
<path d="M25.5625 34.125H74.4375V38.3751H25.5625V34.125Z" fill="#90A4AE"/>
<path d="M25.5625 23.5H74.4375C76.7835 23.5 78.6876 25.4041 78.6876 27.7501V34.1252H21.3125V27.7501C21.3125 25.4041 23.2165 23.5 25.5625 23.5Z" fill="#CFD8DC"/>
<path d="M82 68C90.8367 68 97.9995 75.1627 97.9995 83.9995C97.9995 92.8363 90.8368 100 82 100C73.1632 100 66.0004 92.8362 66.0004 83.9995C66.0004 75.1629 73.1633 68 82 68Z" fill="white"/>
<path d="M89 83.0006H83.0002V75.9988C83.0002 75.4458 82.5523 74.9988 82.0002 74.9988C81.4482 74.9988 81.0002 75.4458 81.0002 75.9988V83.9985C81.0002 84.5515 81.4482 84.9985 82.0002 84.9985H89C89.553 84.9985 90 84.5515 90 83.9985C90 83.4486 89.553 83.0006 89 83.0006Z" fill="#324D5B"/>
<path d="M82 68C73.1633 68 66.0004 75.1627 66.0004 83.9995C66.0004 92.8363 73.1632 100 82 100C90.8368 100 97.9995 92.8362 97.9995 83.9995C97.9995 75.1629 90.8367 68 82 68ZM82 96.5C74.8322 96.5 69.5 91.1683 69.5 83.9995C69.5 76.8318 74.8322 71.5 82 71.5C89.1677 71.5 94.5 76.8318 94.5 83.9995C94.5 91.1683 89.1677 96.5 82 96.5Z" fill="#FFC61B"/>
</svg>
