<svg width="11" height="11" viewBox="0 0 11 11" fill="none" xmlns="http://www.w3.org/2000/svg">
<g clip-path="url(#clip0)">
<path d="M4.97426 5.46321L0.105375 10.3321C-0.0298907 10.4674 -0.0298907 10.6865 0.105375 10.8218C0.172922 10.8895 0.26161 10.9232 0.350126 10.9232C0.438814 10.9232 0.527329 10.8895 0.594877 10.8218L5.50037 5.91628L10.4059 10.8218C10.4736 10.8895 10.5621 10.9232 10.6506 10.9232C10.7391 10.9232 10.8278 10.8895 10.8954 10.8218C11.0306 10.6865 11.0306 10.4674 10.8954 10.3321L6.02666 5.46321L10.8986 0.590901C11.0339 0.455635 11.0339 0.236494 10.8986 0.101229C10.7634 -0.033865 10.5442 -0.033865 10.4091 0.101229L5.50054 5.01015L0.591439 0.101401C0.456173 -0.0336931 0.237204 -0.0336931 0.101938 0.101401C-0.0333282 0.236666 -0.0333282 0.455807 0.101938 0.591072L4.97426 5.46321Z" fill="#404040"/>
</g>
<defs>
<clipPath id="clip0">
<rect width="11" height="11" fill="white"/>
</clipPath>
</defs>
</svg>
