<svg width="20" height="20" viewBox="0 0 20 20" fill="none" xmlns="http://www.w3.org/2000/svg">
<g clip-path="url(#clip0)">
<path d="M6.74199 1.81818C6.74199 1.22197 7.20729 0.786241 7.8035 0.786241H12.1672C12.7632 0.786241 13.2285 1.22197 13.2285 1.81818V2.9484H14.0147V1.81818C14.0147 0.788544 13.1968 0 12.1672 0H7.8035C6.77386 0 5.95575 0.788544 5.95575 1.81818V2.9484H6.74199V1.81818Z" fill="#F76060"/>
<path d="M5.3367 20H14.634C15.5304 20 16.226 19.2115 16.226 18.231V6.09338H3.74445V18.231C3.74445 19.2115 4.44008 20 5.3367 20V20ZM12.4914 7.9705C12.4914 7.7534 12.6674 7.57738 12.8845 7.57738C13.1016 7.57738 13.2776 7.7534 13.2776 7.9705V17.258C13.2776 17.4751 13.1016 17.6511 12.8845 17.6511C12.6674 17.6511 12.4914 17.4751 12.4914 17.258V7.9705ZM9.59211 7.9705C9.59211 7.7534 9.76813 7.57738 9.98523 7.57738C10.2023 7.57738 10.3784 7.7534 10.3784 7.9705V17.258C10.3784 17.4751 10.2023 17.6511 9.98523 17.6511C9.76813 17.6511 9.59211 17.4751 9.59211 17.258V7.9705ZM6.69285 7.9705C6.69285 7.7534 6.86887 7.57738 7.08597 7.57738C7.30307 7.57738 7.47909 7.7534 7.47909 7.9705V17.258C7.47909 17.4751 7.30307 17.6511 7.08597 17.6511C6.86887 17.6511 6.69285 17.4751 6.69285 17.258V7.9705Z" fill="#F76060"/>
<path d="M3.3415 5.30716H16.6289C17.1717 5.30716 17.6117 4.8672 17.6117 4.32436C17.6117 3.78151 17.1717 3.34155 16.6289 3.34155H3.3415C2.79866 3.34155 2.3587 3.78151 2.3587 4.32436C2.3587 4.8672 2.79866 5.30716 3.3415 5.30716Z" fill="#F76060"/>
</g>
<defs>
<clipPath id="clip0">
<rect width="20" height="20" fill="white"/>
</clipPath>
</defs>
</svg>
