<svg width="20" height="20" viewBox="0 0 20 20" fill="none" xmlns="http://www.w3.org/2000/svg">
<g clip-path="url(#clip0)">
<path d="M18.4592 12.5638C18.1841 12.5638 17.9611 12.7868 17.9611 13.0619V17.4845C17.9601 18.3095 17.2918 18.978 16.4668 18.9788H2.49052C1.66553 18.978 0.99718 18.3095 0.996207 17.4845V4.50443C0.99718 3.67964 1.66553 3.0111 2.49052 3.01012H6.91313C7.18826 3.01012 7.41124 2.78714 7.41124 2.51202C7.41124 2.23709 7.18826 2.01392 6.91313 2.01392H2.49052C1.11567 2.01547 0.00155657 3.12959 0 4.50443V17.4847C0.00155657 18.8595 1.11567 19.9737 2.49052 19.9752H16.4668C17.8416 19.9737 18.9558 18.8595 18.9573 17.4847V13.0619C18.9573 12.7868 18.7343 12.5638 18.4592 12.5638V12.5638Z" fill="#404040"/>
<path d="M18.76 0.732339C17.8846 -0.143039 16.4654 -0.143039 15.5901 0.732339L6.70358 9.61882C6.64268 9.67972 6.59871 9.75521 6.57575 9.8381L5.40715 14.057C5.35909 14.23 5.40793 14.4152 5.53479 14.5423C5.66185 14.6691 5.84708 14.718 6.02005 14.6701L10.239 13.5013C10.3218 13.4783 10.3973 13.4344 10.4582 13.3735L19.3445 4.4868C20.2185 3.61083 20.2185 2.19279 19.3445 1.31683L18.76 0.732339ZM7.78891 9.94259L15.0618 2.6695L17.4074 5.01506L10.1343 12.2881L7.78891 9.94259ZM7.32038 10.8828L9.1943 12.7569L6.60221 13.475L7.32038 10.8828ZM18.6402 3.78245L18.1119 4.31071L15.7662 1.96495L16.2946 1.43669C16.7808 0.950454 17.5692 0.950454 18.0555 1.43669L18.6402 2.02118C19.1256 2.508 19.1256 3.29582 18.6402 3.78245V3.78245Z" fill="#404040"/>
</g>
<defs>
<clipPath id="clip0">
<rect width="20" height="20" fill="white"/>
</clipPath>
</defs>
</svg>
