<svg width="20" height="20" viewBox="0 0 20 20" fill="none" xmlns="http://www.w3.org/2000/svg">
<g clip-path="url(#clip0)">
<path d="M14.9991 0.00464957L12.4056 0.000488281C9.49185 0.000488281 7.60886 1.93237 7.60886 4.92246V7.19182H5.00119C4.77586 7.19182 4.59338 7.3745 4.59338 7.59984V10.8879C4.59338 11.1132 4.77606 11.2957 5.00119 11.2957H7.60886V19.5925C7.60886 19.8178 7.79134 20.0003 8.01667 20.0003H11.4189C11.6443 20.0003 11.8267 19.8176 11.8267 19.5925V11.2957H14.8757C15.1011 11.2957 15.2835 11.1132 15.2835 10.8879L15.2848 7.59984C15.2848 7.49165 15.2417 7.38803 15.1654 7.31146C15.089 7.23489 14.985 7.19182 14.8768 7.19182H11.8267V5.26806C11.8267 4.34342 12.0471 3.87403 13.2516 3.87403L14.9987 3.8734C15.2238 3.8734 15.4063 3.69072 15.4063 3.4656V0.412456C15.4063 0.187538 15.224 0.0050657 14.9991 0.00464957Z" fill="#787878"/>
</g>
<defs>
<clipPath id="clip0">
<rect width="20" height="20" fill="white"/>
</clipPath>
</defs>
</svg>
