<svg width="20" height="20" viewBox="0 0 20 20" fill="none" xmlns="http://www.w3.org/2000/svg">
<g clip-path="url(#clip0)">
<path d="M16.6008 11.8422C16.4594 10.865 15.6166 10.1116 14.6008 10.1116C13.4863 10.1116 12.5796 11.0184 12.5796 12.1329V17.5043C12.5796 18.6188 13.4863 19.5255 14.6008 19.5255C15.6166 19.5255 16.4594 18.7722 16.6008 17.795C17.2507 17.656 17.7396 17.0775 17.7396 16.3867V13.2505C17.7396 12.5597 17.2507 11.9812 16.6008 11.8422ZM17.0944 16.3867C17.0944 16.7101 16.8999 16.9886 16.622 17.1127V14.2834C16.622 14.1052 16.4776 13.9608 16.2994 13.9608C16.1212 13.9608 15.9768 14.1052 15.9768 14.2834V17.5043C15.9768 18.2631 15.3595 18.8803 14.6008 18.8803C13.8421 18.8803 13.2248 18.263 13.2248 17.5043V12.1329C13.2248 11.3741 13.8421 10.7568 14.6008 10.7568C15.3595 10.7568 15.9768 11.3741 15.9768 12.1329V12.9931C15.9768 13.1713 16.1212 13.3156 16.2994 13.3156C16.4776 13.3156 16.622 13.1713 16.622 12.9931V12.5245C16.8999 12.6485 17.0944 12.9269 17.0944 13.2504V16.3867Z" fill="#404040"/>
<path d="M5.39923 10.1116C4.38345 10.1116 3.54057 10.865 3.39923 11.8422C2.74934 11.9812 2.26044 12.5597 2.26044 13.2504V16.3867C2.26044 17.0775 2.74934 17.6559 3.39923 17.7949C3.54061 18.7722 4.38345 19.5255 5.39923 19.5255C6.51373 19.5255 7.42044 18.6187 7.42044 17.5043V12.1329C7.42044 11.0184 6.51373 10.1116 5.39923 10.1116ZM6.77527 17.5043C6.77527 18.2631 6.15794 18.8803 5.39923 18.8803C4.64052 18.8803 4.02319 18.263 4.02319 17.5043V14.2834C4.02319 14.1052 3.8788 13.9608 3.70061 13.9608C3.52242 13.9608 3.37803 14.1052 3.37803 14.2834V17.1127C3.10009 16.9886 2.9056 16.7102 2.9056 16.3867V13.2504C2.9056 12.927 3.10009 12.6485 3.37803 12.5245V12.9931C3.37803 13.1713 3.52242 13.3156 3.70061 13.3156C3.8788 13.3156 4.02319 13.1713 4.02319 12.9931V12.1329C4.02319 11.3741 4.64052 10.7568 5.39923 10.7568C6.15794 10.7568 6.77527 11.3741 6.77527 12.1329V17.5043Z" fill="#404040"/>
<path d="M17.0711 3.40339C15.1823 1.51466 12.6711 0.474487 10 0.474487C7.3289 0.474487 4.81772 1.51466 2.9289 3.40339C1.04017 5.29212 0 7.80339 0 10.4745C0 10.6527 0.144387 10.7971 0.322581 10.7971H0.545075C0.723269 10.7971 0.867656 10.6527 0.867656 10.4745C0.867656 10.3331 0.776645 10.2129 0.649979 10.1694C0.725936 7.78498 1.69032 5.55432 3.38512 3.85961C5.152 2.09272 7.50125 1.11965 10 1.11965C12.4988 1.11965 14.848 2.09272 16.6149 3.85961C18.3096 5.55432 19.2741 7.78503 19.35 10.1694C19.2234 10.2129 19.1324 10.3331 19.1324 10.4745C19.1324 10.6527 19.2768 10.7971 19.455 10.7971H19.6774C19.8556 10.7971 20 10.6527 20 10.4745C20 7.80339 18.9598 5.29212 17.0711 3.40339Z" fill="#404040"/>
<path d="M9.99999 1.55714C5.083 1.55714 1.0827 5.55745 1.0827 10.4745C1.0827 11.1639 1.16176 11.8504 1.31771 12.5158V14.8186C1.31771 14.9968 1.4621 15.1411 1.64029 15.1411C1.81849 15.1411 1.96287 14.9968 1.96287 14.8186V12.4781C1.96287 12.4528 1.95991 12.4276 1.95406 12.4031C1.80399 11.7752 1.72786 11.1264 1.72786 10.4745C1.72786 5.91319 5.4387 2.20231 9.99999 2.20231C14.5613 2.20231 18.2721 5.91319 18.2721 10.4745C18.2721 11.1264 18.196 11.7752 18.0459 12.4031C18.0401 12.4276 18.0371 12.4528 18.0371 12.4781V14.8186C18.0371 14.9968 18.1815 15.1411 18.3597 15.1411C18.5379 15.1411 18.6823 14.9968 18.6823 14.8186V12.5158C18.8382 11.8504 18.9173 11.1639 18.9173 10.4745C18.9173 5.55745 14.917 1.55714 9.99999 1.55714Z" fill="#404040"/>
</g>
<defs>
<clipPath id="clip0">
<rect width="20" height="20" fill="white"/>
</clipPath>
</defs>
</svg>
