<svg width="20" height="20" viewBox="0 0 20 20" fill="none" xmlns="http://www.w3.org/2000/svg">
<path d="M14.4805 0H5.51913C2.47588 0 0 2.476 0 5.51924V14.4806C0 17.524 2.47588 19.9999 5.51913 19.9999H14.4805C17.524 19.9999 19.9999 17.5239 19.9999 14.4806V5.51924C20 2.476 17.524 0 14.4805 0ZM18.2255 14.4806C18.2255 16.5455 16.5455 18.2254 14.4806 18.2254H5.51913C3.45433 18.2255 1.77449 16.5455 1.77449 14.4806V5.51924C1.77449 3.45445 3.45433 1.77449 5.51913 1.77449H14.4805C16.5454 1.77449 18.2254 3.45445 18.2254 5.51924V14.4806H18.2255Z" fill="#787878"/>
<path d="M9.9999 4.84668C7.15824 4.84668 4.84644 7.15848 4.84644 10.0001C4.84644 12.8417 7.15824 15.1534 9.9999 15.1534C12.8416 15.1534 15.1534 12.8417 15.1534 10.0001C15.1534 7.15848 12.8416 4.84668 9.9999 4.84668ZM9.9999 13.3788C8.13681 13.3788 6.62092 11.8631 6.62092 10C6.62092 8.13681 8.13669 6.62105 9.9999 6.62105C11.8631 6.62105 13.3789 8.13681 13.3789 10C13.3789 11.8631 11.863 13.3788 9.9999 13.3788Z" fill="#787878"/>
<path d="M15.3695 3.34216C15.0276 3.34216 14.6918 3.48057 14.4503 3.72309C14.2077 3.96442 14.0682 4.30039 14.0682 4.64345C14.0682 4.98546 14.2078 5.32131 14.4503 5.56382C14.6917 5.80515 15.0276 5.94474 15.3695 5.94474C15.7126 5.94474 16.0474 5.80515 16.2899 5.56382C16.5324 5.32131 16.6708 4.98534 16.6708 4.64345C16.6708 4.30039 16.5324 3.96442 16.2899 3.72309C16.0486 3.48057 15.7126 3.34216 15.3695 3.34216Z" fill="#787878"/>
</svg>
