<svg width="20" height="20" viewBox="0 0 20 20" fill="none" xmlns="http://www.w3.org/2000/svg">
<g clip-path="url(#clip0)">
<path d="M17.9701 5.62255C17.7074 2.73061 15.6605 0.632457 13.0988 0.632457C11.3922 0.632457 9.82952 1.55086 8.95024 3.02278C8.07892 1.53182 6.58034 0.632111 4.90105 0.632111C2.33971 0.632111 0.292435 2.73027 0.0300352 5.6222C0.00926476 5.74994 -0.075894 6.42221 0.183044 7.51854C0.556219 9.09986 1.41819 10.5382 2.67515 11.6771L8.94609 17.3679L15.3247 11.6775C16.5816 10.5382 17.4436 9.10021 17.8168 7.51854C18.0757 6.42255 17.9906 5.75029 17.9701 5.62255ZM17.1428 7.35999C16.8022 8.80423 16.0125 10.12 14.8615 11.1627L8.95024 16.4367L3.14041 11.1641C1.9873 10.1193 1.19803 8.80388 0.857044 7.35965C0.611953 6.32216 0.71269 5.73609 0.713036 5.73228L0.718229 5.69732C0.943242 3.16368 2.70215 1.32446 4.90105 1.32446C6.52356 1.32446 7.95188 2.32144 8.62969 3.92595L8.94851 4.68165L9.26734 3.92595C9.93441 2.34602 11.4382 1.3248 13.0991 1.3248C15.2977 1.3248 17.0569 3.16402 17.2865 5.73055C17.2871 5.73609 17.3879 6.32251 17.1428 7.35999Z" fill="#404040"/>
</g>
<defs>
<clipPath id="clip0">
<rect width="20" height="20" fill="white"/>
</clipPath>
</defs>
</svg>
