<svg width="50" height="50" viewBox="0 0 50 50" fill="none" xmlns="http://www.w3.org/2000/svg">
<path d="M42.4837 16.7084C42.4832 16.7084 42.4826 16.7084 42.4821 16.7084H0.715873C0.320974 16.708 0.000418071 17.0277 4.08739e-07 17.4226C4.08739e-07 17.4231 4.08739e-07 17.4237 4.08739e-07 17.4242V37.472C-0.000417253 37.8669 0.319303 38.1875 0.714203 38.1879C0.714725 38.1879 0.715351 38.1879 0.715873 38.1879H29.1169C29.5122 38.1879 29.8328 37.8673 29.8328 37.472C29.8328 37.0767 29.5122 36.7562 29.1169 36.7562H1.43175V18.1401H41.7662V19.9302C41.7658 20.3251 42.0855 20.6457 42.4804 20.6461C42.4809 20.6461 42.4816 20.6461 42.4821 20.6461C42.877 20.6465 43.1975 20.3268 43.198 19.9319C43.198 19.9314 43.198 19.9307 43.198 19.9302V17.4242C43.1984 17.0293 42.8787 16.7089 42.4837 16.7084Z" fill="#33CC33"/>
<path d="M37.6271 13.3845L4.21411 5.86657C4.02867 5.82511 3.83435 5.85874 3.67366 5.96012C3.51317 6.06235 3.39967 6.22388 3.35791 6.40953L1.68726 13.9274C1.60143 14.3136 1.84493 14.6961 2.23105 14.782C2.61718 14.8678 2.99976 14.6243 3.08559 14.2382L4.60003 7.4211L37.313 14.7811C37.3648 14.7931 37.4177 14.7991 37.4709 14.7987C37.8662 14.798 38.1861 14.4769 38.1855 14.0816C38.1849 13.7473 37.9531 13.4581 37.6271 13.3845Z" fill="#33CC33"/>
<path d="M33.5699 9.24218L13.5222 0.888934C13.1737 0.743692 12.7723 0.892902 12.6033 1.23058L10.9327 4.57188C10.744 4.92084 10.8739 5.35677 11.2229 5.54545C11.5719 5.73413 12.0078 5.60423 12.1965 5.25517C12.2039 5.2415 12.2109 5.2275 12.2174 5.2133V5.21497L13.5882 2.47177L33.017 10.5669C33.3828 10.7196 33.8032 10.5468 33.9559 10.181C34.1085 9.81531 33.9358 9.39494 33.5699 9.24218Z" fill="#33CC33"/>
<path d="M34.0762 20.0496H27.4462C27.0509 20.0496 26.7303 20.3701 26.7303 20.7654C26.7303 21.1607 27.0509 21.4813 27.4462 21.4813H34.0762C34.4715 21.4813 34.7921 21.1607 34.7921 20.7654C34.7921 20.3701 34.4715 20.0496 34.0762 20.0496Z" fill="#33CC33"/>
<path d="M20.7637 20.0972C16.7039 20.0972 13.4128 23.3882 13.4128 27.448C13.417 31.506 16.7057 34.7947 20.7637 34.7989C24.8235 34.7989 28.1146 31.5078 28.1146 27.448C28.1146 23.3882 24.8235 20.0972 20.7637 20.0972ZM20.7637 33.4624C17.442 33.4624 14.7494 30.7697 14.7494 27.448C14.753 24.1279 17.4436 21.4373 20.7637 21.4337C24.0854 21.4337 26.778 24.1264 26.778 27.448C26.778 30.7697 24.0854 33.4624 20.7637 33.4624Z" fill="#33CC33"/>
<path d="M40.8115 22.4362C36.3843 22.4362 31.6229 23.482 31.6229 25.7775V45.8252C31.6229 48.1207 36.3843 49.1665 40.8115 49.1665C45.2387 49.1665 50.0001 48.1207 50.0001 45.8252V25.7775C50.0001 23.482 45.2387 22.4362 40.8115 22.4362ZM48.3294 45.8127C48.2033 46.2763 45.6981 47.4959 40.8115 47.4959C35.9248 47.4959 33.4197 46.2763 33.2936 45.8252V44.5121C35.0711 45.4076 38.0073 45.8252 40.8115 45.8252C43.6157 45.8252 46.5527 45.4034 48.3294 44.5113V45.8127ZM48.3294 42.4714C48.2033 42.935 45.6981 44.1546 40.8115 44.1546C35.9248 44.1546 33.4197 42.935 33.2936 42.4839V41.1708C35.0711 42.0663 38.0073 42.4839 40.8115 42.4839C43.6157 42.4839 46.5527 42.0621 48.3294 41.17V42.4714ZM48.3294 39.1301C48.2033 39.5937 45.6981 40.8133 40.8115 40.8133C35.9248 40.8133 33.4197 39.5937 33.2936 39.1426V37.8295C35.0711 38.725 38.0073 39.1426 40.8115 39.1426C43.6157 39.1426 46.5527 38.7208 48.3294 37.8287V39.1301ZM48.3294 35.7888C48.2033 36.2524 45.6981 37.472 40.8115 37.472C35.9248 37.472 33.4197 36.2524 33.2936 35.8013V34.4882C35.0711 35.3837 38.0073 35.8013 40.8115 35.8013C43.6157 35.8013 46.5527 35.3795 48.3294 34.4874V35.7888ZM48.3294 32.4475C48.2033 32.9111 45.6981 34.1307 40.8115 34.1307C35.9248 34.1307 33.4197 32.9111 33.2936 32.46V31.1469C35.0711 32.0382 38.0073 32.46 40.8115 32.46C43.6157 32.46 46.5527 32.0382 48.3294 31.1461V32.4475ZM48.3294 29.1062C48.2033 29.5698 45.6981 30.7894 40.8115 30.7894C35.9248 30.7894 33.4197 29.5698 33.2936 29.1187V27.8056C35.0711 28.6969 38.0073 29.1187 40.8115 29.1187C43.6157 29.1187 46.5527 28.6969 48.3294 27.8048V29.1062ZM40.8115 27.4481C35.9324 27.4481 33.4281 26.2319 33.2936 25.7925V25.7875C33.4281 25.3222 35.9324 24.1068 40.8115 24.1068C45.6564 24.1068 48.1623 25.3047 48.3294 25.7775C48.1623 26.2502 45.6564 27.4481 40.8115 27.4481Z" fill="#33CC33"/>
<path d="M14.0811 33.414H7.76684L4.77304 30.1396V24.71L8.07925 21.4814H14.0811C14.4764 21.4814 14.7969 21.1609 14.7969 20.7656C14.7969 20.3702 14.4764 20.0497 14.0811 20.0497H7.78856C7.60145 20.0493 7.42154 20.1221 7.28736 20.2527L3.55597 23.8922C3.41657 24.0551 3.34014 24.2625 3.34046 24.4769V30.4177C3.34046 30.5964 3.40718 30.7686 3.52757 30.9005L6.92149 34.6127C7.05713 34.7612 7.24904 34.8459 7.45025 34.8458H14.0811C14.4764 34.8458 14.7969 34.5252 14.7969 34.1299C14.7969 33.7346 14.4765 33.414 14.0811 33.414Z" fill="#33CC33"/>
<path d="M21.1813 26.6127H20.346C20.0862 26.6127 19.9283 26.4674 19.9283 26.4039C19.9283 26.3404 20.0862 26.1951 20.346 26.1951H22.4343C22.8956 26.1951 23.2696 25.821 23.2696 25.3597C23.2696 24.8984 22.8956 24.5244 22.4343 24.5244H21.599C21.599 24.0631 21.225 23.6891 20.7637 23.6891C20.3024 23.6891 19.9283 24.0631 19.9283 24.5244V24.562C19.0019 24.6928 18.3 25.465 18.2577 26.3997C18.3175 27.4949 19.2504 28.3364 20.346 28.2834H21.1813C21.4411 28.2834 21.599 28.4287 21.599 28.4922C21.599 28.5557 21.4411 28.701 21.1813 28.701H19.093C18.6317 28.701 18.2577 29.075 18.2577 29.5364C18.2577 29.9977 18.6317 30.3717 19.093 30.3717H19.9283C19.9283 30.833 20.3024 31.207 20.7637 31.207C21.225 31.207 21.599 30.833 21.599 30.3717V30.3341C22.5255 30.2033 23.2273 29.4311 23.2696 28.4964C23.2098 27.4012 22.277 26.5597 21.1813 26.6127Z" fill="#33CC33"/>
</svg>
