<svg width="45" height="45" viewBox="0 0 45 45" fill="none" xmlns="http://www.w3.org/2000/svg">
<path d="M25.3566 2.85669C15.8356 2.85669 7.88159 9.6669 6.09398 18.6681L2.36021 14.0005L0 15.8893L6.04415 23.4445C6.33876 23.8117 6.77698 24.0111 7.22426 24.0111C7.45242 24.0111 7.68357 23.9597 7.8997 23.8524L16.9659 19.3193L15.6135 16.6161L8.9514 19.9464C10.1874 11.9923 17.0611 5.87872 25.3566 5.87872C34.5211 5.87872 41.978 13.3356 41.978 22.5001C41.978 31.6645 34.5211 39.1214 25.3566 39.1214V42.1434C36.1876 42.1434 45 33.3311 45 22.5001C45 11.669 36.1876 2.85669 25.3566 2.85669Z" fill="#33CC33"/>
</svg>
