<svg width="20" height="20" viewBox="0 0 20 20" fill="none" xmlns="http://www.w3.org/2000/svg">
<g clip-path="url(#clip0)">
<path d="M19.361 18.2168L14.601 13.2661C15.8249 11.8112 16.4955 9.98067 16.4955 8.07498C16.4955 3.6225 12.873 -1.52588e-05 8.42047 -1.52588e-05C3.96799 -1.52588e-05 0.345474 3.6225 0.345474 8.07498C0.345474 12.5275 3.96799 16.15 8.42047 16.15C10.092 16.15 11.6849 15.6458 13.0467 14.6887L17.8429 19.677C18.0434 19.8852 18.313 20 18.602 20C18.8755 20 19.1349 19.8957 19.3319 19.7061C19.7504 19.3034 19.7637 18.6357 19.361 18.2168ZM8.42047 2.1065C11.7116 2.1065 14.3889 4.78389 14.3889 8.07498C14.3889 11.3661 11.7116 14.0434 8.42047 14.0434C5.12938 14.0434 2.45199 11.3661 2.45199 8.07498C2.45199 4.78389 5.12938 2.1065 8.42047 2.1065Z" fill="white"/>
</g>
<defs>
<clipPath id="clip0">
<rect width="20" height="20" fill="white"/>
</clipPath>
</defs>
</svg>
