<svg width="20" height="20" viewBox="0 0 20 20" fill="none" xmlns="http://www.w3.org/2000/svg">
<g clip-path="url(#clip0)">
<path d="M0.353259 9.64297L4.96166 11.363L6.74539 17.0994C6.85953 17.4668 7.30879 17.6026 7.60699 17.3588L10.1758 15.2647C10.4451 15.0453 10.8286 15.0344 11.11 15.2386L15.7432 18.6024C16.0622 18.8343 16.5141 18.6595 16.5941 18.274L19.9882 1.94797C20.0755 1.5269 19.6618 1.17563 19.2609 1.3307L0.347859 8.62677C-0.118874 8.80676 -0.114808 9.46757 0.353259 9.64297ZM6.45793 10.4474L15.4645 4.90023C15.6263 4.80083 15.7929 5.0197 15.6539 5.14863L8.22086 12.058C7.95959 12.3012 7.79106 12.6266 7.74333 12.9799L7.49013 14.8563C7.45659 15.1068 7.10466 15.1317 7.03553 14.8892L6.06173 11.4676C5.95019 11.0773 6.11273 10.6604 6.45793 10.4474Z" fill="#787878"/>
</g>
<defs>
<clipPath id="clip0">
<rect width="20" height="20" fill="white"/>
</clipPath>
</defs>
</svg>
