<?xml version="1.0" encoding="UTF-8"?>
<svg width="14px" height="14px" viewBox="0 0 14 14" version="1.1" xmlns="http://www.w3.org/2000/svg" xmlns:xlink="http://www.w3.org/1999/xlink">
    <!-- Generator: Sketch 59 (86127) - https://sketch.com -->
    <title>close</title>
    <desc>Created with Sketch.</desc>
    <g id="Page-1" stroke="none" stroke-width="1" fill="none" fill-rule="evenodd">
        <g id="close" fill="#747386" fill-rule="nonzero">
            <path d="M7.7582924,6.98640936 L13.8128694,0.931805068 C14.0260351,0.718639376 14.0260351,0.373033138 13.8128694,0.159894737 C13.5997037,-0.0532436647 13.2540975,-0.0532709552 13.0409591,0.159894737 L6.98635478,6.21449903 L0.931777778,0.159894737 C0.718612086,-0.0532709552 0.373005848,-0.0532709552 0.159867446,0.159894737 C-0.0532709552,0.373060429 -0.0532982456,0.718666667 0.159867446,0.931805068 L6.21444444,6.98638207 L0.159867446,13.0409864 C-0.0532982456,13.254152 -0.0532982456,13.5997583 0.159867446,13.8128967 C0.266436647,13.9194659 0.406136452,13.9727368 0.545836257,13.9727368 C0.685536062,13.9727368 0.825208577,13.9194659 0.931805068,13.8128967 L6.98635478,7.75831969 L13.0409318,13.8128967 C13.147501,13.9194659 13.2872008,13.9727368 13.4269006,13.9727368 C13.5666004,13.9727368 13.7062729,13.9194659 13.8128694,13.8128967 C14.0260351,13.599731 14.0260351,13.2541248 13.8128694,13.0409864 L7.7582924,6.98640936 Z" id="Path"></path>
        </g>
    </g>
</svg>