<svg width="100" height="100" viewBox="0 0 100 100" fill="none" xmlns="http://www.w3.org/2000/svg">
<path d="M98 50C98 76.51 76.51 98 50 98C23.49 98 2 76.51 2 50C2 23.49 23.49 2 50 2C76.51 2 98 23.49 98 50Z" fill="#BBC9FD"/>
<path d="M97.9275 55C97.9275 54.1196 98 53 98 52L81 39.5L19.5 81L43 97.5C45 98 49.1196 98 50 98C76.51 98 93.5 81.5 97.9275 55Z" fill="#95A7E4"/>
<g clip-path="url(#clip0)">
<path d="M51.662 19.8057C50.6554 19.1348 49.3445 19.1348 48.3379 19.8057L19 39.3642V39.3643L50 60.031L81 39.3643V39.3642L51.662 19.8057Z" fill="#DC8744"/>
<path d="M73.7873 21.2095H26.2153V69.6257H73.7873V21.2095Z" fill="#EBF0F3"/>
<path d="M48.2465 25.5669H29.9694V27.2616H48.2465V25.5669Z" fill="#44C4A1"/>
<path d="M70.0305 31.8198H29.9694V33.5145H70.0305V31.8198Z" fill="#E1E6E9"/>
<path d="M70.0305 36.9243H29.9694V38.619H70.0305V36.9243Z" fill="#E1E6E9"/>
<path d="M70.0305 42.0291H29.9694V43.7237H70.0305V42.0291Z" fill="#E1E6E9"/>
<path d="M70.0305 47.1338H29.9694V48.8285H70.0305V47.1338Z" fill="#E1E6E9"/>
<path d="M70.0305 52.241H29.9694V53.9356H70.0305V52.241Z" fill="#E1E6E9"/>
<path d="M55.5526 56.3291L80.9999 80.6975V39.3643L55.5526 56.3291Z" fill="#FCD462"/>
<path d="M19 39.3643V80.6975H19.0001L44.4472 56.3291L19 39.3643Z" fill="#FCD462"/>
<path d="M54.6924 56.9027L81.0001 80.6974L55.5527 56.3291L54.6924 56.9027Z" fill="#DC8744"/>
<path d="M44.4473 56.3291L19.0002 80.6974L45.3077 56.9027L44.4473 56.3291Z" fill="#DC8744"/>
<path d="M53.7765 56.0743C51.6155 54.1198 48.3846 54.1198 46.2236 56.0743L45.3077 56.9027L19.0002 80.6975H81L54.6924 56.9027L53.7765 56.0743Z" fill="#F6C358"/>
</g>
<circle cx="82" cy="84" r="16" fill="#02C873"/>
<rect x="74" y="81" width="16" height="12" rx="3" fill="white"/>
<path fill-rule="evenodd" clip-rule="evenodd" d="M82 74C79.2386 74 77 76.2386 77 79V82C77 84.7614 79.2386 87 82 87C84.7614 87 87 84.7614 87 82V79C87 76.2386 84.7614 74 82 74ZM82 87C80.3431 87 79 85.6569 79 84V79C79 77.3431 80.3431 76 82 76C83.6569 76 85 77.3431 85 79V84C85 85.6569 83.6569 87 82 87Z" fill="white"/>
<circle cx="82" cy="87" r="2" fill="#3CB971"/>
<defs>
<clipPath id="clip0">
<rect x="19" y="19" width="62" height="62" fill="white"/>
</clipPath>
</defs>
</svg>
