<svg width="24" height="24" viewBox="0 0 24 24" fill="none" xmlns="http://www.w3.org/2000/svg">
<path d="M17.8125 16.875C17.8125 18.1157 16.8032 19.125 15.5625 19.125H8.0625C6.82181 19.125 5.8125 18.1157 5.8125 16.875V7.125C5.8125 5.88431 6.82181 4.875 8.0625 4.875H15.5625C16.8032 4.875 17.8125 5.88431 17.8125 7.125V16.875ZM15.5625 21V22.3879C15.5625 23.1294 15.3266 23.1969 14.0687 23.4159C14.0422 23.4189 14.0085 23.4247 13.9506 23.4347C13.6751 23.4818 12.8368 23.625 11.8125 23.625C11.3207 23.625 10.5426 23.5909 9.6285 23.4281C9.60263 23.4234 9.58369 23.4201 9.56794 23.4178C8.27119 23.1637 8.0625 23.0713 8.0625 22.3879V21C8.0625 20.5324 8.022 20.0001 7.79644 19.5531H15.8385C15.6009 20.0186 15.5625 20.5654 15.5625 21ZM8.0625 3V1.61212C8.0625 0.928687 8.27119 0.83625 9.56794 0.582188C9.58369 0.579938 9.60263 0.576562 9.6285 0.571875C10.5426 0.409125 11.3207 0.375 11.8125 0.375C12.8368 0.375 13.6751 0.51825 13.9506 0.565313C14.0085 0.57525 14.0422 0.581062 14.0687 0.584063C15.3255 0.802688 15.5625 0.868687 15.5625 1.61212V3C15.5625 3.43462 15.6009 3.98137 15.8385 4.44694H7.79644C8.022 3.99994 8.0625 3.46762 8.0625 3ZM18.4299 10.125C18.5031 10.125 18.5625 10.0656 18.5625 9.99244V8.00756C18.5625 7.93444 18.5031 7.875 18.4299 7.875H18.1875V7.125C18.1875 6.00244 17.472 5.04131 16.4756 4.668C16.0823 4.32056 15.9375 3.75131 15.9375 3V1.61212C15.9375 0.52575 15.3362 0.423937 14.1174 0.211875C14.0646 0.211875 13.0843 0 11.8125 0C10.5407 0 9.534 0.211875 9.50756 0.211875C8.28881 0.450375 7.6875 0.578812 7.6875 1.61212V3C7.6875 3.74831 7.56281 4.3155 7.16213 4.66331C6.15919 5.03325 5.4375 5.99756 5.4375 7.125V16.875C5.4375 18.0024 6.15919 18.9667 7.16213 19.3367C7.56281 19.6845 7.6875 20.2517 7.6875 21V22.3879C7.6875 23.4212 8.28881 23.5496 9.50756 23.7881C9.534 23.7881 10.5407 24 11.8125 24C13.0843 24 14.0646 23.7881 14.1174 23.7881C15.3362 23.5761 15.9375 23.4743 15.9375 22.3879V21C15.9375 20.2487 16.0823 19.6794 16.4756 19.332C17.472 18.9587 18.1875 17.9976 18.1875 16.875V15.375H18.375C18.4785 15.375 18.5625 15.291 18.5625 15.1875V12.5625C18.5625 12.459 18.4785 12.375 18.375 12.375H18.1875V10.125H18.4299ZM17.25 16.875C17.25 17.8056 16.4931 18.5625 15.5625 18.5625H8.0625C7.13194 18.5625 6.375 17.8056 6.375 16.875V7.125C6.375 6.19444 7.13194 5.4375 8.0625 5.4375H15.5625C16.4931 5.4375 17.25 6.19444 17.25 7.125V16.875ZM15.5625 5.25H8.0625C7.02694 5.25 6.1875 6.08944 6.1875 7.125V16.875C6.1875 17.9106 7.02694 18.75 8.0625 18.75H15.5625C16.5981 18.75 17.4375 17.9106 17.4375 16.875V7.125C17.4375 6.08944 16.5981 5.25 15.5625 5.25Z" fill="#404040"/>
</svg>
