<svg width="24" height="24" viewBox="0 0 24 24" fill="none" xmlns="http://www.w3.org/2000/svg">
<path d="M7.97571 10.0278V5.59021C7.97571 5.41077 7.84113 5.263 7.66754 5.24158V4.04956C7.66754 3.85529 7.51007 3.698 7.31598 3.698H3.98785C3.79376 3.698 3.63629 3.85529 3.63629 4.04956V5.24158C3.46271 5.263 3.32812 5.41077 3.32812 5.59021V10.0278C3.32812 11.3091 4.37054 12.3516 5.65192 12.3516C6.93329 12.3516 7.97571 11.3091 7.97571 10.0278ZM4.33942 4.40112H6.96442V5.23865H4.33942V4.40112ZM4.03125 10.0278V5.94177H7.27258V10.0278C7.27258 10.9213 6.54547 11.6484 5.65192 11.6484C4.75836 11.6484 4.03125 10.9213 4.03125 10.0278Z" fill="#404040"/>
<path d="M18.6997 11.675V3.5257C18.6997 2.58398 18.3331 1.69867 17.6673 1.0329C17.0012 0.36676 16.1157 0 15.1741 0C13.2299 0 11.6484 1.58148 11.6484 3.5257V20.4743C11.6484 21.2281 11.3549 21.937 10.8219 22.4698C10.2887 23.0032 9.57971 23.2969 8.82587 23.2969C7.26965 23.2969 6.00348 22.0307 6.00348 20.4743V13.4442C6.00348 13.2501 5.84601 13.0926 5.65192 13.0926C5.45782 13.0926 5.30035 13.2501 5.30035 13.4442V20.4743C5.30035 22.4185 6.88184 24 8.82587 24C9.76758 24 10.6531 23.6332 11.3192 22.9671C11.985 22.3013 12.3516 21.416 12.3516 20.4743V3.5257C12.3516 1.9693 13.6177 0.703125 15.1741 0.703125C15.928 0.703125 16.6368 0.996826 17.1702 1.53021C17.703 2.06305 17.9965 2.77185 17.9965 3.5257V11.675C16.8814 11.8449 16.0243 12.8104 16.0243 13.9722V18.4098C16.0243 18.5892 16.1589 18.737 16.3325 18.7584V19.9506C16.3325 20.1447 16.4899 20.3022 16.684 20.3022H20.0122C20.2062 20.3022 20.3637 20.1447 20.3637 19.9506V18.7584C20.5373 18.737 20.6719 18.5892 20.6719 18.4098V13.9722C20.6719 12.8104 19.8148 11.8449 18.6997 11.675ZM18.3481 12.3516C19.2416 12.3516 19.9688 13.0787 19.9688 13.9722V18.0582H16.7274V13.9722C16.7274 13.0787 17.4544 12.3516 18.3481 12.3516ZM19.6606 19.5989H17.0356V18.7612H19.6606V19.5989Z" fill="#404040"/>
</svg>
