<svg width="12" height="12" viewBox="0 0 12 12" fill="none" xmlns="http://www.w3.org/2000/svg">
<g clip-path="url(#clip0)">
<path d="M5.42654 5.95986L0.115032 11.2714C-0.0325303 11.4189 -0.0325303 11.658 0.115032 11.8055C0.18872 11.8794 0.28547 11.9162 0.382033 11.9162C0.478783 11.9162 0.575346 11.8794 0.649034 11.8055L6.00048 6.45411L11.3519 11.8055C11.4258 11.8794 11.5224 11.9162 11.6189 11.9162C11.7155 11.9162 11.8122 11.8794 11.8859 11.8055C12.0335 11.658 12.0335 11.4189 11.8859 11.2714L6.57461 5.95986L11.8895 0.644612C12.0371 0.497049 12.0371 0.257987 11.8895 0.110424C11.7419 -0.0369506 11.5029 -0.0369506 11.3555 0.110424L6.00067 5.46561L0.645284 0.110612C0.497721 -0.0367631 0.258845 -0.0367631 0.111282 0.110612C-0.0362804 0.258174 -0.0362804 0.497237 0.111282 0.644799L5.42654 5.95986Z" fill="#404040"/>
</g>
<defs>
<clipPath id="clip0">
<rect width="12" height="12" fill="white"/>
</clipPath>
</defs>
</svg>
