<svg width="32" height="32" viewBox="0 0 32 32" fill="none" xmlns="http://www.w3.org/2000/svg">
<path d="M16 30.2197C15.5444 30.2197 15.1052 30.0547 14.7629 29.7549C13.4702 28.6245 12.2239 27.5622 11.1242 26.6252L11.1186 26.6203C7.89476 23.873 5.11083 21.5005 3.17382 19.1633C1.00854 16.5505 0 14.0732 0 11.367C0 8.73757 0.90161 6.31179 2.53857 4.53616C4.19506 2.73953 6.468 1.75003 8.93944 1.75003C10.7866 1.75003 12.4782 2.33401 13.9673 3.48562C14.7187 4.06692 15.3999 4.77834 16 5.60818C16.6003 4.77834 17.2812 4.06692 18.0329 3.48562C19.5219 2.33401 21.2136 1.75003 23.0607 1.75003C25.5319 1.75003 27.8051 2.73953 29.4616 4.53616C31.0986 6.31179 31.9999 8.73757 31.9999 11.367C31.9999 14.0732 30.9916 16.5505 28.8264 19.1631C26.8894 21.5005 24.1057 23.8728 20.8823 26.6199C19.7807 27.5583 18.5324 28.6223 17.2368 29.7553C16.8947 30.0547 16.4553 30.2197 16 30.2197ZM8.93944 3.62454C6.99779 3.62454 5.2141 4.39944 3.9165 5.80666C2.5996 7.23513 1.87426 9.20973 1.87426 11.367C1.87426 13.6431 2.72021 15.6787 4.61693 17.9673C6.45018 20.1794 9.17698 22.5032 12.3342 25.1938L12.3401 25.1987C13.4438 26.1394 14.695 27.2058 15.9973 28.3445C17.3073 27.2036 18.5605 26.1355 19.6665 25.1933C22.8234 22.5027 25.55 20.1794 27.3832 17.9673C29.2797 15.6787 30.1257 13.6431 30.1257 11.367C30.1257 9.20973 29.4003 7.23513 28.0834 5.80666C26.7861 4.39944 25.0021 3.62454 23.0607 3.62454C21.6384 3.62454 20.3325 4.07669 19.1794 4.96829C18.1518 5.76321 17.436 6.76809 17.0163 7.47121C16.8005 7.83278 16.4206 8.0486 16 8.0486C15.5793 8.0486 15.1994 7.83278 14.9836 7.47121C14.5642 6.76809 13.8484 5.76321 12.8205 4.96829C11.6675 4.07669 10.3616 3.62454 8.93944 3.62454Z" fill="white"/>
</svg>
