<svg width="26" height="26" viewBox="0 0 26 26" fill="none" xmlns="http://www.w3.org/2000/svg">
<path d="M19.5 5.28125V1.625C19.5 0.73125 18.7688 0 17.875 0H8.125C7.23125 0 6.5 0.73125 6.5 1.625V3.25C6.38828 3.25 6.29688 3.34141 6.29688 3.45312V3.85938C6.29688 3.97109 6.38828 4.0625 6.5 4.0625V5.28125C6.38828 5.28125 6.29688 5.37266 6.29688 5.48438V6.70312C6.29688 6.81484 6.38828 6.90625 6.5 6.90625V7.3125C6.38828 7.3125 6.29688 7.40391 6.29688 7.51562V8.73438C6.29688 8.84609 6.38828 8.9375 6.5 8.9375V24.375C6.5 25.2687 7.23125 26 8.125 26H17.875C18.7688 26 19.5 25.2687 19.5 24.375V7.3125C19.6117 7.3125 19.7031 7.22109 19.7031 7.10938V5.48438C19.7031 5.37266 19.6117 5.28125 19.5 5.28125ZM19.0938 24.375C19.0938 25.0469 18.5469 25.5938 17.875 25.5938H8.125C7.45306 25.5938 6.90625 25.0469 6.90625 24.375V1.625C6.90625 0.953062 7.45306 0.40625 8.125 0.40625H17.875C18.5469 0.40625 19.0938 0.953062 19.0938 1.625V24.375Z" fill="#404040"/>
<path d="M10.8672 1.82812C10.9233 1.82812 10.9688 1.78265 10.9688 1.72656C10.9688 1.67047 10.9233 1.625 10.8672 1.625C10.8111 1.625 10.7656 1.67047 10.7656 1.72656C10.7656 1.78265 10.8111 1.82812 10.8672 1.82812Z" fill="#404040"/>
<path d="M11.4766 1.82812H14.5234C14.5793 1.82812 14.625 1.78242 14.625 1.72656C14.625 1.6707 14.5793 1.625 14.5234 1.625H11.4766C11.4207 1.625 11.375 1.6707 11.375 1.72656C11.375 1.78242 11.4207 1.82812 11.4766 1.82812Z" fill="#404040"/>
<path d="M13 23.5625C12.5513 23.5625 12.1875 23.9263 12.1875 24.375C12.1875 24.8237 12.5513 25.1875 13 25.1875C13.4487 25.1875 13.8125 24.8237 13.8125 24.375C13.8125 23.9263 13.4487 23.5625 13 23.5625ZM13 24.9844C12.664 24.9844 12.3906 24.711 12.3906 24.375C12.3906 24.039 12.664 23.7656 13 23.7656C13.336 23.7656 13.6094 24.039 13.6094 24.375C13.6094 24.711 13.336 24.9844 13 24.9844Z" fill="#404040"/>
<path d="M17.8791 3.04688H8.12094C7.67447 3.04688 7.3125 3.40884 7.3125 3.85531V22.3478C7.3125 22.7943 7.67447 23.1562 8.12094 23.1562H17.8791C18.3255 23.1562 18.6875 22.7943 18.6875 22.3478V3.85531C18.6875 3.40884 18.3255 3.04688 17.8791 3.04688ZM18.4844 22.3478C18.4844 22.6815 18.2128 22.9531 17.8791 22.9531H8.12094C7.7872 22.9531 7.51562 22.6815 7.51562 22.3478V3.85531C7.51562 3.52158 7.7872 3.25 8.12094 3.25H17.8791C18.2128 3.25 18.4844 3.52158 18.4844 3.85531V22.3478Z" fill="#404040"/>
</svg>
