<svg width="24" height="16" viewBox="0 0 24 16" fill="none" xmlns="http://www.w3.org/2000/svg">
<path d="M2.29323 13.9362H21.7068C22.1084 13.9362 22.4348 13.6096 22.4348 13.2082V0.72801C22.4348 0.326565 22.1084 0 21.7068 0H2.29323C1.89179 0 1.56522 0.326565 1.56522 0.72801V13.2082C1.56522 13.6096 1.89199 13.9362 2.29323 13.9362ZM2.18923 0.72801C2.18923 0.670601 2.23582 0.624009 2.29323 0.624009H21.7068C21.7642 0.624009 21.8108 0.670601 21.8108 0.72801V13.2082C21.8108 13.2656 21.7642 13.3122 21.7068 13.3122H2.29323C2.23582 13.3122 2.18923 13.2656 2.18923 13.2082V0.72801ZM24 14.4932V15.0758C24 15.2302 23.8748 15.3554 23.7204 15.3554H0.279556C0.125218 15.3554 0 15.2302 0 15.0758V14.4932H9.85663C9.90531 14.6557 10.0542 14.7749 10.2325 14.7749H13.7677C13.9458 14.7749 14.0947 14.6559 14.1436 14.4932H24Z" fill="#404040"/>
</svg>
