<svg width="24" height="24" viewBox="0 0 24 24" fill="none" xmlns="http://www.w3.org/2000/svg">
<g clip-path="url(#clip0)">
<path d="M22.1818 18.9884H1.81818C0.816 18.9884 0 18.1731 0 17.1702V3.35272C0 2.34981 0.816 1.53454 1.81818 1.53454H22.1818C23.184 1.53454 24 2.34981 24 3.35272V17.1702C24 18.1731 23.184 18.9884 22.1818 18.9884ZM1.81818 2.26181C1.21673 2.26181 0.727273 2.75127 0.727273 3.35272V17.1702C0.727273 17.7716 1.21673 18.2611 1.81818 18.2611H22.1818C22.7833 18.2611 23.2727 17.7716 23.2727 17.1702V3.35272C23.2727 2.75127 22.7833 2.26181 22.1818 2.26181H1.81818Z" fill="#404040"/>
<path d="M16.6364 22.4654H7.36364C7.16291 22.4654 7 22.3025 7 22.1018C7 21.9011 7.16291 21.7382 7.36364 21.7382H16.6364C16.8371 21.7382 17 21.9011 17 22.1018C17 22.3025 16.8371 22.4654 16.6364 22.4654Z" fill="#404040"/>
<path d="M12 22.4654C11.7993 22.4654 11.6364 22.3025 11.6364 22.1018V18.6247C11.6364 18.424 11.7993 18.2611 12 18.2611C12.2007 18.2611 12.3636 18.424 12.3636 18.6247V22.1018C12.3636 22.3033 12.2007 22.4654 12 22.4654Z" fill="#404040"/>
</g>
<defs>
<clipPath id="clip0">
<rect width="24" height="24" fill="white"/>
</clipPath>
</defs>
</svg>
