<svg width="24" height="24" viewBox="0 0 24 24" fill="none" xmlns="http://www.w3.org/2000/svg">
<path fill-rule="evenodd" clip-rule="evenodd" d="M5.8125 11.055C6.07141 11.055 6.28125 10.8452 6.28125 10.5862V7.00525C6.28125 6.61249 6.60077 6.29297 6.99353 6.29297H16.983C17.3758 6.29297 17.6951 6.61249 17.6951 7.00525V10.5379C17.6951 10.7968 17.9052 11.0067 18.1639 11.0067C18.4228 11.0067 18.6326 10.7968 18.6326 10.5379V7.00525C18.6326 6.09558 17.8927 5.35547 16.983 5.35547H16.1724V2.11725C16.1724 0.949768 15.2225 0 14.055 0H9.92139C8.75391 0 7.80414 0.949768 7.80414 2.11725V5.35547H6.99353C6.08386 5.35547 5.34375 6.09558 5.34375 7.00525V10.5862C5.34375 10.8452 5.55359 11.055 5.8125 11.055ZM8.74164 2.11725C8.74164 1.46667 9.271 0.9375 9.92139 0.9375H14.0552C14.7056 0.9375 15.2349 1.46667 15.2349 2.11725V5.35547H8.74164V2.11725Z" fill="#404040"/>
<path fill-rule="evenodd" clip-rule="evenodd" d="M18.1641 13.8192C17.9052 13.8192 17.6953 14.029 17.6953 14.2879V16.9948C17.6953 17.3875 17.3758 17.707 16.983 17.707H6.99353C6.60077 17.707 6.28125 17.3875 6.28125 16.9948V14.3362C6.28125 14.0773 6.07141 13.8675 5.8125 13.8675C5.55359 13.8675 5.34375 14.0773 5.34375 14.3362V16.9948C5.34375 17.9044 6.08386 18.6445 6.99353 18.6445H7.80414V21.8828C7.80414 23.0502 8.75409 24 9.92157 24H14.0552C15.2225 24 16.1724 23.0502 16.1724 21.8828V18.6445H16.983C17.8927 18.6445 18.6328 17.9044 18.6328 16.9948V14.2879C18.6328 14.029 18.423 13.8192 18.1641 13.8192ZM15.2349 21.8828C15.2349 22.5333 14.7056 23.0625 14.055 23.0625H9.92139C9.271 23.0625 8.74164 22.5333 8.74164 21.8828V18.6445H15.2349V21.8828Z" fill="#404040"/>
<path fill-rule="evenodd" clip-rule="evenodd" d="M16.6126 11.9484H15.6207L14.2661 9.42719C14.1844 9.27521 14.0259 9.18036 13.8532 9.18036C13.6805 9.18036 13.522 9.27521 13.4403 9.42719L11.5919 12.8679L10.1631 10.2083C10.0812 10.0563 9.92267 9.96149 9.75018 9.96149C9.57751 9.96149 9.41894 10.0563 9.3371 10.2083L8.40234 11.9485H7.36395C7.10504 11.9485 6.8952 12.1584 6.8952 12.4173C6.8952 12.6762 7.10504 12.886 7.36395 12.886H8.68268C8.85516 12.886 9.01392 12.7912 9.09558 12.639L9.75018 11.4207L11.179 14.0801C11.2606 14.2322 11.4192 14.3271 11.5919 14.3271C11.7645 14.3271 11.9231 14.2321 12.0048 14.0801L13.8532 10.6395L14.9275 12.639C15.0092 12.7912 15.1677 12.8859 15.3404 12.8859H16.6124C16.8713 12.8859 17.0812 12.676 17.0812 12.4171C17.0814 12.1582 16.8715 11.9484 16.6126 11.9484Z" fill="#404040"/>
<path fill-rule="evenodd" clip-rule="evenodd" d="M5.8125 12.93C6.07068 12.93 6.28125 12.7194 6.28125 12.4612C6.28125 12.2031 6.07068 11.9925 5.8125 11.9925C5.55432 11.9925 5.34375 12.2031 5.34375 12.4612C5.34375 12.7194 5.55432 12.93 5.8125 12.93Z" fill="#404040"/>
<path fill-rule="evenodd" clip-rule="evenodd" d="M18.1641 11.9442C17.9059 11.9442 17.6953 12.1547 17.6953 12.4129C17.6953 12.6711 17.9059 12.8817 18.1641 12.8817C18.4222 12.8817 18.6328 12.6711 18.6328 12.4129C18.6328 12.1547 18.4222 11.9442 18.1641 11.9442Z" fill="#404040"/>
</svg>
