<svg width="50" height="50" viewBox="0 0 50 50" fill="none" xmlns="http://www.w3.org/2000/svg">
<g clip-path="url(#clip0)">
<path d="M43.9337 10.1235L25.1415 0.110053C24.8627 -0.0387391 24.5286 -0.0366509 24.2519 0.115274L5.97967 10.1287C5.68 10.2932 5.49414 10.6075 5.49414 10.9494V24.0296C5.5051 34.7817 11.8755 44.5091 21.7271 48.8168L24.2634 49.922C24.5004 50.0254 24.7703 50.0259 25.0078 49.923L27.8657 48.6889C37.9 44.4746 44.4281 34.6533 44.4291 23.7701V10.9494C44.4291 10.6038 44.2386 10.2859 43.9337 10.1235ZM42.558 23.7701C42.5559 33.9031 36.4763 43.0462 27.1332 46.9676L27.1269 46.9707L24.6382 48.0451L22.4758 47.1017C13.3055 43.0922 7.37519 34.0383 7.36474 24.0296V11.5034L24.7076 1.99841L42.558 11.5101V23.7701Z" fill="#33CC33"/>
<path d="M17.8053 23.423C17.4696 23.0299 16.8791 22.9835 16.486 23.3192C16.0929 23.6543 16.0464 24.2453 16.3821 24.6379L21.3241 30.4252C21.654 30.8115 22.232 30.8642 22.6256 30.5437L34.1354 21.1797C34.5363 20.8539 34.5969 20.2645 34.2706 19.8635C33.9448 19.4631 33.3554 19.402 32.9544 19.7283L22.1537 28.5149L17.8053 23.423Z" fill="#33CC33"/>
</g>
<defs>
<clipPath id="clip0">
<rect width="50" height="50" fill="white"/>
</clipPath>
</defs>
</svg>
