<svg width="59" height="64" viewBox="0 0 59 64" fill="none" xmlns="http://www.w3.org/2000/svg">
<g opacity="0.8">
<path d="M23.0365 4.71969C22.6231 5.1404 22.4162 5.62456 22.4162 6.1715C22.4162 6.71844 22.6231 7.2026 23.0365 7.62331L47.4239 32.4289L23.0365 57.2354C22.6231 57.6559 22.4162 58.1403 22.4162 58.6863C22.4162 59.2342 22.6231 59.7183 23.0365 60.1388L26.1396 63.2944C26.5529 63.7149 27.0291 63.9238 27.566 63.9238C28.1039 63.9238 28.5799 63.7136 28.9933 63.2944L57.9101 33.8796C58.3243 33.4594 58.5302 32.9759 58.5302 32.4289C58.5302 31.882 58.3237 31.3976 57.9101 30.9771L28.9935 1.5645C28.5799 1.14313 28.1046 0.933104 27.5656 0.933104C27.0292 0.933104 26.5532 1.14379 26.1396 1.5645L23.0365 4.71969Z" fill="#819BC2"/>
<path d="M0.816986 10.7209C0.506945 11.0575 0.351759 11.4448 0.351759 11.8824C0.351759 12.3199 0.506944 12.7072 0.816986 13.0438L19.1075 32.8883L0.816984 52.7335C0.506943 53.0699 0.351757 53.4574 0.351757 53.8942C0.351757 54.3325 0.506943 54.7198 0.816984 55.0562L3.14425 57.5807C3.45429 57.9171 3.81144 58.0842 4.21407 58.0842C4.61752 58.0842 4.97451 57.916 5.28455 57.5807L26.9721 34.0489C27.2828 33.7126 27.4372 33.3258 27.4372 32.8883C27.4372 32.4507 27.2823 32.0632 26.9721 31.7269L5.28471 8.19676C4.97451 7.85967 4.61801 7.69165 4.21375 7.69165C3.81145 7.69165 3.45446 7.8602 3.14425 8.19676L0.816986 10.7209Z" fill="#819BC2"/>
</g>
</svg>
