<svg width="221" height="155" viewBox="0 0 221 155" fill="none" xmlns="http://www.w3.org/2000/svg">
<g clip-path="url(#clip0)">
<path d="M170.268 70.8423C170.179 70.7812 116.038 39.6107 116.038 39.6107C110.894 36.6499 104.556 36.6499 99.4114 39.6107L33.0937 77.7754C29.7691 79.6889 27.0728 84.8226 27.0728 89.2424V109.881C27.0728 112.527 28.0425 114.307 29.5318 114.908L29.5226 114.914L97.6443 154.114C97.8746 154.296 98.1269 154.437 98.393 154.545L98.4405 154.572L98.4463 154.567C99.4357 154.944 100.646 154.812 101.958 154.057L170.567 114.576C173.893 112.662 176.588 107.528 176.588 103.109V82.209C176.589 80.1006 175.844 74.3602 170.268 70.8423Z" fill="url(#paint0_linear)"/>
<path d="M169.999 70.6624L116.038 39.6107C110.894 36.6499 104.556 36.6499 99.4114 39.6107L33.662 77.4467C30.733 79.1318 30.733 83.3451 33.662 85.0302L87.6228 116.082C92.7678 119.043 99.1059 119.043 104.25 116.082L122.14 105.787L113.712 100.937L100.035 108.807C98.7911 109.524 97.3735 109.902 95.9363 109.902C94.499 109.902 93.0814 109.524 91.8374 108.807L43.9288 81.239L103.626 46.8852C104.87 46.1689 106.289 45.7906 107.725 45.7906C109.162 45.7906 110.58 46.1689 111.825 46.8852L159.733 74.4536L141.888 84.7223H141.893L150.362 89.5458L169.999 78.246C172.928 76.5608 172.928 72.3475 169.999 70.6624Z" fill="#BBF7FF"/>
<path d="M170.136 70.7534C172.921 72.4904 172.879 76.5884 169.999 78.2459L150.374 89.5526C150.374 99.9101 144.057 111.941 136.263 116.426C128.469 120.911 122.152 116.15 122.152 105.794L101.958 117.414C98.6325 119.327 95.9362 124.461 95.9362 128.881V149.52C95.9362 153.94 98.6325 155.971 101.958 154.057L170.567 114.576C173.893 112.662 176.588 107.528 176.588 103.108V82.2089C176.589 77.5215 174.134 73.1882 170.136 70.7534Z" fill="url(#paint1_linear)"/>
<path d="M136.263 116.426C144.057 111.941 150.374 99.9101 150.374 89.5527L141.894 84.7234C141.894 95.0797 135.575 107.111 127.782 111.596C126.312 112.442 124.897 112.954 123.565 113.166C125.851 118.105 130.678 119.64 136.263 116.426Z" fill="#368BDB"/>
<path d="M123.565 113.166C124.897 112.954 126.312 112.442 127.782 111.596C133.978 108.03 139.239 99.6921 141.136 91.2193L111.825 74.3543C110.581 73.6381 109.163 73.2598 107.726 73.2598C106.289 73.2598 104.871 73.6381 103.626 74.3543L67.7963 94.9736L91.8848 108.833C93.1173 109.532 94.5175 109.902 95.9362 109.902C97.3735 109.902 98.7911 109.524 100.035 108.807L113.712 100.938L122.14 105.787L122.152 105.794C122.152 108.728 122.66 111.212 123.565 113.166Z" fill="#0E68BE"/>
</g>
<ellipse cx="36.8699" cy="78.4284" rx="21.6683" ry="21.5968" fill="#FF5722"/>
<path d="M36.8967 75.1965C38.8376 75.1965 40.3803 75.7515 41.5247 76.8615C42.6782 77.9714 43.255 79.4918 43.255 81.4226C43.255 83.7079 42.5638 85.4661 41.1813 86.6974C39.7989 87.9286 37.8214 88.5442 35.2488 88.5442C33.015 88.5442 31.2114 88.1758 29.8381 87.4389V83.7032C30.5614 84.095 31.4037 84.4168 32.365 84.6686C33.3262 84.9111 34.2372 85.0324 35.0978 85.0324C37.6887 85.0324 38.9841 83.9504 38.9841 81.7864C38.9841 79.725 37.6429 78.6943 34.9604 78.6943C34.4752 78.6943 33.9396 78.7456 33.3537 78.8482C32.7678 78.9415 32.2917 79.0441 31.9255 79.156L30.2364 78.2326L30.9917 67.8091H41.8817V71.4748H34.7132L34.3425 75.4903L34.8231 75.3924C35.3816 75.2618 36.0728 75.1965 36.8967 75.1965Z" fill="white"/>
<g filter="url(#filter0_d)">
<path d="M195.378 81.5928C193.996 66.7719 185.87 58.6736 171 57.2968C185.87 55.9193 193.996 47.8209 195.376 33C196.757 47.8209 204.884 55.9192 219.754 57.296C204.885 58.6727 196.759 66.7719 195.378 81.5928Z" fill="url(#paint2_linear)"/>
</g>
<g filter="url(#filter1_d)">
<path d="M95.4076 32.3952C94.4867 22.5146 89.069 17.1157 79.1558 16.1979C89.069 15.2795 94.4861 9.88059 95.4065 0C96.3274 9.88059 101.745 15.2795 111.658 16.1973C101.746 17.1151 96.3285 22.5146 95.4076 32.3952Z" fill="url(#paint3_linear)"/>
</g>
<g filter="url(#filter2_d)">
<path d="M15.9569 142.178C15.1384 133.395 10.3227 128.596 1.51086 127.78C10.3227 126.964 15.1379 122.165 15.9559 113.382C16.7745 122.165 21.5902 126.964 30.402 127.78C21.5907 128.596 16.7755 133.395 15.9569 142.178Z" fill="url(#paint4_linear)"/>
</g>
<defs>
<filter id="filter0_d" x="170" y="33" width="50.7538" height="51.0728" filterUnits="userSpaceOnUse" color-interpolation-filters="sRGB">
<feFlood flood-opacity="0" result="BackgroundImageFix"/>
<feColorMatrix in="SourceAlpha" type="matrix" values="0 0 0 0 0 0 0 0 0 0 0 0 0 0 0 0 0 0 127 0"/>
<feOffset dy="1.48"/>
<feGaussianBlur stdDeviation="0.5"/>
<feColorMatrix type="matrix" values="0 0 0 0 0 0 0 0 0 0 0 0 0 0 0 0 0 0 0.12 0"/>
<feBlend mode="normal" in2="BackgroundImageFix" result="effect1_dropShadow"/>
<feBlend mode="normal" in="SourceGraphic" in2="effect1_dropShadow" result="shape"/>
</filter>
<filter id="filter1_d" x="78.1558" y="0" width="34.5025" height="34.8752" filterUnits="userSpaceOnUse" color-interpolation-filters="sRGB">
<feFlood flood-opacity="0" result="BackgroundImageFix"/>
<feColorMatrix in="SourceAlpha" type="matrix" values="0 0 0 0 0 0 0 0 0 0 0 0 0 0 0 0 0 0 127 0"/>
<feOffset dy="1.48"/>
<feGaussianBlur stdDeviation="0.5"/>
<feColorMatrix type="matrix" values="0 0 0 0 0 0 0 0 0 0 0 0 0 0 0 0 0 0 0.12 0"/>
<feBlend mode="normal" in2="BackgroundImageFix" result="effect1_dropShadow"/>
<feBlend mode="normal" in="SourceGraphic" in2="effect1_dropShadow" result="shape"/>
</filter>
<filter id="filter2_d" x="0.510864" y="113.382" width="30.8912" height="31.2757" filterUnits="userSpaceOnUse" color-interpolation-filters="sRGB">
<feFlood flood-opacity="0" result="BackgroundImageFix"/>
<feColorMatrix in="SourceAlpha" type="matrix" values="0 0 0 0 0 0 0 0 0 0 0 0 0 0 0 0 0 0 127 0"/>
<feOffset dy="1.48"/>
<feGaussianBlur stdDeviation="0.5"/>
<feColorMatrix type="matrix" values="0 0 0 0 0 0 0 0 0 0 0 0 0 0 0 0 0 0 0.12 0"/>
<feBlend mode="normal" in2="BackgroundImageFix" result="effect1_dropShadow"/>
<feBlend mode="normal" in="SourceGraphic" in2="effect1_dropShadow" result="shape"/>
</filter>
<linearGradient id="paint0_linear" x1="106.53" y1="56.0077" x2="74.1175" y2="167.685" gradientUnits="userSpaceOnUse">
<stop offset="0.0883894" stop-color="#54A6F3"/>
<stop offset="0.992016" stop-color="#2177C9"/>
</linearGradient>
<linearGradient id="paint1_linear" x1="136.107" y1="86.4951" x2="136.261" y2="154.777" gradientUnits="userSpaceOnUse">
<stop stop-color="#94D4FF"/>
<stop offset="1" stop-color="#0A8ADE"/>
</linearGradient>
<linearGradient id="paint2_linear" x1="195.377" y1="33" x2="195.377" y2="81.5928" gradientUnits="userSpaceOnUse">
<stop stop-color="#FFECB9"/>
<stop offset="1" stop-color="#FFBB00"/>
</linearGradient>
<linearGradient id="paint3_linear" x1="95.407" y1="0" x2="95.407" y2="32.3952" gradientUnits="userSpaceOnUse">
<stop stop-color="#FFECB9"/>
<stop offset="1" stop-color="#FFBB00"/>
</linearGradient>
<linearGradient id="paint4_linear" x1="15.9564" y1="113.382" x2="15.9564" y2="142.178" gradientUnits="userSpaceOnUse">
<stop stop-color="#FFECB9"/>
<stop offset="1" stop-color="#FFBB00"/>
</linearGradient>
<clipPath id="clip0">
<rect x="25.8878" y="3.59937" width="151.678" height="151.178" fill="white"/>
</clipPath>
</defs>
</svg>
