<svg width="139" height="107" viewBox="0 0 139 107" fill="none" xmlns="http://www.w3.org/2000/svg">
<g clip-path="url(#clip0)">
<path d="M133.74 47.6225C133.676 47.5795 95.2885 25.628 95.2885 25.628C91.6413 23.5429 87.1474 23.5429 83.4993 25.628L36.4772 52.505C34.1199 53.8526 32.2081 57.468 32.2081 60.5806V75.1152C32.2081 76.9785 32.8957 78.2319 33.9517 78.6551L33.9451 78.6591L82.2464 106.266C82.4097 106.394 82.5886 106.493 82.7773 106.569L82.8109 106.588L82.815 106.585C83.5166 106.85 84.3748 106.757 85.3053 106.226L133.952 78.4211C136.31 77.0736 138.221 73.4582 138.221 70.3456V55.6274C138.222 54.1426 137.694 50.0999 133.74 47.6225Z" fill="url(#paint0_linear)"/>
<path d="M133.549 47.4958L95.2885 25.628C91.6413 23.5429 87.1474 23.5429 83.4994 25.628L36.8801 52.2735C34.8034 53.4603 34.8034 56.4275 36.8801 57.6142L75.1408 79.4819C78.7888 81.567 83.2828 81.567 86.9299 79.4819L99.6151 72.2317L93.6393 68.8161L83.9416 74.359C83.0596 74.8634 82.0544 75.1298 81.0354 75.1298C80.0163 75.1298 79.0111 74.8634 78.1291 74.359L44.1597 54.9443L86.4877 30.751C87.3697 30.2466 88.3757 29.9801 89.394 29.9801C90.413 29.9801 91.4182 30.2466 92.301 30.751L126.27 50.1657L113.617 57.3973H113.621L119.626 60.7942L133.549 52.8364C135.626 51.6497 135.626 48.6825 133.549 47.4958Z" fill="#BBF7FF"/>
<path d="M100.625 77.4287C101.57 77.2793 102.573 76.9186 103.615 76.3232C108.009 73.8117 111.739 67.9398 113.084 61.973L92.3011 50.096C91.419 49.5916 90.4139 49.3252 89.3948 49.3252C88.3757 49.3252 87.3706 49.5916 86.4877 50.096L61.0829 64.6169L78.1627 74.377C79.0366 74.8693 80.0294 75.13 81.0354 75.13C82.0545 75.13 83.0596 74.8636 83.9416 74.3592L93.6393 68.8171L99.6151 72.2318L99.6233 72.2367C99.6233 74.3031 99.9835 76.0527 100.625 77.4287Z" fill="#0A4E8F"/>
<path d="M106.966 3.99992L106.964 3.9983C106.936 3.98205 106.908 3.965 106.88 3.95038L101.207 0.722439C100.251 0.0848123 98.9661 0.0929348 97.5532 0.901138L56.1983 24.5372C53.2469 26.2243 50.8543 30.7486 50.8543 34.6442V58.7709L77.6556 74.0886L103.483 59.3273C106.434 57.641 108.826 53.1159 108.826 49.2211V8.28218C108.826 6.1443 108.104 4.64243 106.966 3.99992Z" fill="#829CC2"/>
<path d="M103.483 4.28349L62.1282 27.9196C59.1768 29.6066 56.785 34.1318 56.785 38.0266V62.1597L77.6557 74.0886L103.483 59.3274C106.434 57.6411 108.826 53.116 108.826 49.2212V8.28226C108.826 4.38746 106.434 2.59723 103.483 4.28349Z" fill="#D9E1ED"/>
<path d="M103.483 4.28344L62.1282 27.9195C61.0016 28.5636 59.9571 29.622 59.0956 30.9005C58.9922 31.0638 58.8921 31.2303 58.7961 31.4009L76.5045 44.8276C80.2518 47.6681 86.3556 44.1794 90.1029 37.055L107.351 4.26232C106.378 3.47118 105.005 3.41351 103.483 4.28344Z" fill="white"/>
<path d="M119.385 10.7428L119.383 10.7412C119.355 10.725 119.327 10.7079 119.299 10.6933L113.626 7.46536C112.67 6.82773 111.385 6.83585 109.972 7.64406L68.6174 31.2801C65.666 32.9672 63.2734 37.4915 63.2734 41.3871V65.5138L90.0747 80.8315L113.641 63.0819C116.592 61.3956 118.984 56.8705 118.984 52.9757L121.245 15.0251C121.245 12.8872 120.523 11.3853 119.385 10.7428Z" fill="#829CC2"/>
<path d="M115.902 11.0264L74.5472 34.6625C71.5958 36.3496 69.204 40.8747 69.204 44.7695V68.9375L89.443 81.181L103.066 77.6322C104.443 76.8452 106.443 74.8078 110.415 70.0022C114.953 64.5106 121.245 55.0449 121.245 52.9678V15.0252C121.245 11.1304 118.853 9.34015 115.902 11.0264Z" fill="#D9E1ED"/>
<path d="M133.646 47.5601C135.621 48.7833 135.591 51.6693 133.549 52.8365L119.634 60.7992C119.634 68.0933 115.155 76.566 109.629 79.7241C104.102 82.883 99.6233 79.53 99.6233 72.2367L85.3052 80.4202C82.9471 81.7678 81.0353 85.3832 81.0353 88.4958V103.03C81.0353 106.143 82.9471 107.573 85.3052 106.226L133.952 78.4212C136.31 77.0737 138.221 73.4583 138.221 70.3457V55.6275C138.222 52.3264 136.481 49.2747 133.646 47.5601Z" fill="url(#paint1_linear)"/>
<path d="M109.629 79.7241C115.155 76.566 119.634 68.0933 119.634 60.7991L113.621 57.3982C113.621 64.6915 109.141 73.1643 103.615 76.3232C102.573 76.9185 101.57 77.2792 100.625 77.4286C102.246 80.9068 105.669 81.9879 109.629 79.7241Z" fill="#368BDB"/>
<path d="M115.902 11.0264L74.5473 34.6624C73.4207 35.3066 72.3762 36.3649 71.5146 37.6434C71.4113 37.8067 71.3111 37.9732 71.2151 38.1438L88.9235 51.5705C92.6708 54.411 98.7746 50.9223 102.522 43.798L119.77 11.0052C118.797 10.2141 117.424 10.1564 115.902 11.0264Z" fill="white"/>
<path d="M113.641 57.4038L126.188 50.1287L130.311 54.7421L119.556 60.7752L113.641 57.4038Z" fill="#BBF7FF"/>
<path d="M86.8926 79.4261C83.2454 81.5112 78.7515 81.5112 75.1035 79.4261L78.0918 74.3031C78.9738 74.8076 79.979 75.074 80.998 75.074C82.0171 75.074 83.0223 74.8076 83.9043 74.3031L93.602 68.7603L99.5778 72.1758L86.8926 79.4261Z" fill="#BBF7FF"/>
</g>
<path d="M0 57.0692C0 50.0693 5.77082 44.3948 12.8895 44.3948H58.8083C65.9269 44.3948 71.6978 50.0693 71.6978 57.0692C71.6978 64.0691 65.9269 69.7436 58.8083 69.7436H12.8895C5.77082 69.7436 0 64.0691 0 57.0692Z" fill="#FF5722"/>
<path d="M11.0482 62.8488L15.6633 53.4515H9.60229V51.4155H18.4205V52.9347L13.7718 62.8488H11.0482Z" fill="white"/>
<path d="M20.8836 62.8488L25.4987 53.4515H19.4377V51.4155H28.256V52.9347L23.6073 62.8488H20.8836Z" fill="white"/>
<path d="M32.6693 61.1652C32.3779 62.2197 31.8847 63.4701 31.1898 64.9162H29.3404C29.7046 63.5275 29.9877 62.2171 30.1894 60.985H32.5432L32.6693 61.1652Z" fill="white"/>
<path d="M38.7302 51.251C39.9071 51.251 40.8543 51.5016 41.5716 52.0028C42.2945 52.4988 42.656 53.1696 42.656 54.0154C42.656 54.6001 42.4823 55.1222 42.1348 55.5816C41.7874 56.0358 41.2269 56.443 40.4536 56.8032C41.3726 57.2627 42.0311 57.743 42.429 58.2442C42.8325 58.7401 43.0343 59.2857 43.0343 59.8809C43.0343 60.8206 42.6392 61.5776 41.849 62.1519C41.0588 62.7209 40.0192 63.0055 38.7302 63.0055C37.3852 63.0055 36.3288 62.7392 35.5611 62.2067C34.7933 61.6742 34.4094 60.9198 34.4094 59.9435C34.4094 59.2909 34.5943 58.7114 34.9642 58.205C35.3397 57.6986 35.9393 57.2522 36.7632 56.8659C36.0626 56.4535 35.5583 56.0123 35.25 55.5424C34.9418 55.0726 34.7877 54.5583 34.7877 53.9997C34.7877 53.1801 35.152 52.517 35.8805 52.0106C36.6091 51.5042 37.559 51.251 38.7302 51.251ZM36.8136 59.8026C36.8136 60.2515 36.9817 60.6013 37.318 60.8519C37.6542 61.1025 38.1138 61.2278 38.6966 61.2278C39.3411 61.2278 39.8231 61.0999 40.1425 60.8441C40.462 60.583 40.6217 60.2411 40.6217 59.8182C40.6217 59.4684 40.462 59.1421 40.1425 58.8393C39.8287 58.5313 39.3159 58.205 38.6042 57.8604C37.4105 58.3721 36.8136 59.0194 36.8136 59.8026ZM38.7134 53.0208C38.2707 53.0208 37.912 53.1279 37.6374 53.3419C37.3684 53.5507 37.2339 53.8327 37.2339 54.1877C37.2339 54.5009 37.3404 54.7828 37.5534 55.0334C37.7719 55.2788 38.1642 55.532 38.7302 55.793C39.2795 55.5529 39.6634 55.3075 39.8819 55.0569C40.1005 54.8063 40.2098 54.5166 40.2098 54.1877C40.2098 53.8274 40.0697 53.5429 39.7894 53.3341C39.5092 53.1253 39.1506 53.0208 38.7134 53.0208Z" fill="white"/>
<path d="M52.9201 62.8488H44.3289V61.1652L47.414 58.2598C48.3275 57.388 48.9243 56.785 49.2045 56.4509C49.4848 56.1115 49.6865 55.7983 49.8098 55.5111C49.9331 55.224 49.9947 54.9264 49.9947 54.6184C49.9947 54.159 49.8574 53.817 49.5828 53.5925C49.3138 53.368 48.9524 53.2558 48.4984 53.2558C48.022 53.2558 47.5597 53.3576 47.1114 53.5612C46.663 53.7648 46.1951 54.0545 45.7075 54.4304L44.2952 52.872C44.9005 52.3917 45.4021 52.0524 45.8 51.854C46.1979 51.6556 46.6322 51.5042 47.103 51.3998C47.5737 51.2902 48.1005 51.2354 48.6833 51.2354C49.4511 51.2354 50.1292 51.3659 50.7177 51.6269C51.3061 51.8879 51.7629 52.2534 52.0879 52.7233C52.413 53.1931 52.5755 53.7309 52.5755 54.3365C52.5755 54.8638 52.4746 55.3597 52.2729 55.8244C52.0767 56.2838 51.7685 56.7563 51.3482 57.2418C50.9334 57.7273 50.1993 58.4191 49.1457 59.317L47.5653 60.7031V60.8128H52.9201V62.8488Z" fill="white"/>
<path d="M54.0802 57.9857C54.0802 55.7199 54.593 54.0337 55.6186 52.9269C56.6498 51.8201 58.1909 51.2667 60.2421 51.2667C60.9426 51.2667 61.4918 51.3058 61.8897 51.3841V53.3184C61.3909 53.214 60.8978 53.1618 60.4102 53.1618C59.5191 53.1618 58.7906 53.2871 58.2245 53.5377C57.6641 53.7883 57.2438 54.159 56.9636 54.6497C56.6834 55.1404 56.5181 55.8374 56.4676 56.7406H56.5769C57.1317 55.8531 58.02 55.4093 59.2417 55.4093C60.3401 55.4093 61.2004 55.7304 61.8225 56.3725C62.4445 57.0147 62.7556 57.9022 62.7556 59.0351C62.7556 60.2568 62.3857 61.2252 61.6459 61.9404C60.9062 62.6505 59.8806 63.0055 58.5692 63.0055C57.6613 63.0055 56.8683 62.8097 56.1902 62.4181C55.5177 62.0266 54.9965 61.4549 54.6266 60.7031C54.2624 59.9513 54.0802 59.0455 54.0802 57.9857ZM58.5188 61.0712C59.0736 61.0712 59.4995 60.8989 59.7965 60.5543C60.0936 60.2045 60.2421 59.7086 60.2421 59.0664C60.2421 58.5078 60.102 58.0693 59.8217 57.7508C59.5471 57.4271 59.1296 57.2653 58.5692 57.2653C58.0424 57.2653 57.5913 57.4245 57.2158 57.743C56.8459 58.0614 56.661 58.4321 56.661 58.855C56.661 59.4763 56.8347 60.0009 57.1822 60.429C57.5352 60.8571 57.9808 61.0712 58.5188 61.0712Z" fill="white"/>
<defs>
<linearGradient id="paint0_linear" x1="88.5468" y1="37.1754" x2="65.8515" y2="115.905" gradientUnits="userSpaceOnUse">
<stop offset="0.0883894" stop-color="#54A6F3"/>
<stop offset="0.992016" stop-color="#2177C9"/>
</linearGradient>
<linearGradient id="paint1_linear" x1="109.518" y1="58.646" x2="109.626" y2="106.733" gradientUnits="userSpaceOnUse">
<stop stop-color="#94D4FF"/>
<stop offset="1" stop-color="#0A8ADE"/>
</linearGradient>
<clipPath id="clip0">
<rect x="31.3679" y="0.267578" width="107.547" height="106.465" fill="white"/>
</clipPath>
</defs>
</svg>
